<?xml version="1.0" standalone="no"?>
<!DOCTYPE svg PUBLIC "-//W3C//DTD SVG 20010904//EN"
 "http://www.w3.org/TR/2001/REC-SVG-20010904/DTD/svg10.dtd">
<svg version="1.0" xmlns="http://www.w3.org/2000/svg"
 width="1280.000000pt" height="1280.000000pt" viewBox="0 0 1280.000000 1280.000000"
 preserveAspectRatio="xMidYMid meet">

<g transform="translate(0.000000,1280.000000) scale(0.100000,-0.100000)"
fill="#000000" stroke="none">
<path d="M0 9702 l0 -3099 168 -6 c408 -15 805 -130 1207 -349 467 -255 870
-660 1052 -1058 51 -112 53 -103 -31 -143 -209 -99 -363 -266 -462 -502 -120
-281 -93 -641 67 -906 99 -165 346 -437 552 -608 84 -70 88 -74 81 -104 -13
-62 -53 -175 -89 -252 l-37 -77 -23 35 c-13 19 -43 50 -66 69 l-42 35 32 62
c17 34 31 64 31 66 0 18 -32 -4 -94 -64 -75 -74 -106 -91 -162 -91 -71 0 -88
38 -119 270 -24 175 -67 254 -217 403 -107 105 -108 108 -108 270 0 172 -9
196 -133 362 -122 161 -149 222 -155 346 -5 107 8 184 60 354 31 102 50 203
41 219 -6 9 -68 -149 -119 -300 -91 -275 -61 -440 117 -654 39 -46 83 -107 97
-135 26 -47 27 -57 27 -195 0 -180 5 -192 131 -315 156 -153 183 -207 208
-430 19 -159 37 -215 82 -255 29 -25 43 -30 88 -30 30 0 70 7 89 15 62 26 101
20 136 -20 42 -49 55 -102 47 -210 -15 -238 -119 -419 -264 -461 -66 -19 -132
-15 -260 18 -103 26 -337 32 -409 10 -142 -43 -260 -192 -266 -336 -3 -67 16
-68 31 -1 20 83 59 150 124 210 73 68 95 72 36 6 -54 -59 -68 -104 -68 -207 1
-121 10 -149 77 -218 104 -108 100 -100 66 -139 -16 -19 -38 -55 -49 -80 -10
-26 -21 -47 -24 -47 -3 0 -16 16 -29 35 -27 39 -99 101 -108 92 -3 -3 4 -19
16 -35 12 -17 21 -33 21 -37 0 -4 -16 -25 -35 -48 -19 -22 -43 -58 -53 -79 -9
-20 -21 -37 -27 -37 -5 0 -57 66 -115 146 -166 231 -194 267 -198 255 -6 -19
43 -100 134 -222 146 -197 167 -247 145 -343 l-6 -28 -60 58 c-98 96 -179 120
-232 71 -40 -37 -52 -70 -59 -167 -4 -50 -10 -91 -13 -91 -4 0 -21 19 -39 41
-134 175 -233 212 -318 117 -29 -31 -61 -96 -69 -141 -10 -54 -29 -47 -21 9
13 97 -31 265 -100 381 -24 40 -29 45 -32 26 -2 -12 13 -73 32 -135 40 -127
76 -276 76 -314 0 -13 6 -34 13 -45 10 -18 9 -23 -1 -26 -10 -4 -10 -8 -1 -19
7 -8 9 -17 5 -21 -12 -12 -57 18 -132 89 -90 86 -107 97 -155 98 -26 0 -42 -7
-62 -28 l-27 -28 0 -271 c0 -248 2 -274 20 -314 25 -57 26 -95 0 -111 -11 -7
-20 -18 -20 -25 0 -11 1261 -13 6400 -13 l6400 0 0 569 0 568 -80 6 c-68 5
-93 13 -158 47 -247 129 -272 139 -387 156 -131 20 -227 10 -313 -32 -90 -44
-134 -132 -117 -235 9 -49 22 -50 30 -1 19 118 53 165 152 202 48 18 72 21
138 17 45 -2 106 -13 136 -23 l55 -18 -38 -34 c-65 -59 -158 -279 -126 -298
12 -7 10 -10 40 56 34 76 70 114 133 146 47 22 64 26 117 22 35 -3 76 -10 92
-17 l29 -12 -43 -44 c-51 -51 -41 -56 45 -20 57 23 182 36 173 18 -2 -5 -19
-39 -39 -78 -36 -69 -61 -154 -74 -247 -5 -35 -10 -46 -21 -41 -24 9 -80 -6
-117 -31 -20 -14 -38 -22 -41 -18 -3 3 -6 24 -6 46 0 44 -18 168 -26 175 -13
14 -23 -24 -26 -103 l-3 -89 -30 -2 c-38 -3 -101 -35 -138 -69 -15 -14 -30
-26 -31 -26 -2 0 -4 26 -5 58 0 32 -7 73 -14 92 l-14 33 -7 -56 -7 -57 -29 21
c-19 15 -38 20 -59 17 -36 -5 -38 -2 -14 24 13 15 14 21 4 31 -10 9 -17 6 -37
-18 -72 -88 -96 -115 -104 -115 -5 0 -11 26 -15 58 -8 71 -33 152 -47 152 -7
0 -9 -25 -5 -75 l5 -75 -29 0 c-30 0 -103 -32 -114 -50 -15 -24 -20 -4 -20 82
0 129 -15 133 -45 11 -14 -56 -40 -59 -40 -5 0 42 -9 82 -19 82 -3 0 -23 -26
-43 -58 -44 -68 -82 -107 -96 -98 -6 3 -13 23 -17 45 -9 53 -58 111 -95 111
-31 0 -84 -48 -128 -117 -15 -24 -31 -42 -37 -40 -5 2 -17 28 -25 58 -24 77
-54 132 -90 163 -17 14 -35 26 -38 26 -4 0 -30 -16 -59 -35 -50 -33 -108 -97
-132 -143 -24 -45 -29 -10 -10 75 10 47 17 89 14 91 -7 7 -35 -19 -35 -32 0
-24 -71 -159 -79 -150 -5 5 -14 27 -21 49 -72 229 -210 244 -304 34 -15 -33
-26 -48 -29 -39 -3 8 -11 33 -17 55 -21 70 -48 105 -81 105 -16 0 -38 -9 -51
-22 -19 -19 -21 -19 -14 -2 15 37 35 108 32 111 -7 7 -63 -103 -81 -157 -10
-30 -20 -59 -22 -63 -3 -4 -17 18 -33 50 -29 61 -61 96 -96 107 -22 7 -42 -6
-69 -44 l-17 -25 7 30 c3 17 35 89 71 161 35 71 64 135 64 142 0 70 -147 -204
-185 -343 -10 -39 -14 -46 -20 -30 -32 93 -75 143 -115 132 -29 -7 -25 9 20
98 64 125 47 145 -28 35 -42 -61 -44 -67 -40 -123 l4 -59 -33 71 c-24 50 -43
76 -63 86 -17 9 -30 18 -30 20 0 2 20 35 45 72 83 124 108 230 81 347 -11 44
-13 73 -7 79 5 5 52 8 107 5 86 -4 99 -7 115 -27 31 -38 26 -135 -12 -232 -18
-44 -29 -82 -26 -85 13 -14 66 39 97 97 44 83 53 184 22 245 -20 39 -56 77
-102 107 -39 27 -48 19 -13 -11 l31 -27 -96 -2 c-72 -1 -119 -8 -181 -27 -118
-36 -155 -35 -196 8 -40 43 -45 70 -45 263 0 168 11 242 41 269 19 17 23 17
108 -5 108 -28 127 -24 141 32 26 101 57 180 115 297 34 69 70 155 79 191 21
85 21 249 0 382 -25 156 -24 299 4 370 56 147 130 210 342 292 177 69 307 143
387 220 84 81 99 120 21 53 -29 -25 -79 -62 -111 -82 -73 -47 -191 -100 -184
-84 3 7 40 90 81 185 253 585 497 904 961 1255 434 329 915 517 1368 535 l137
6 0 3498 0 3499 -6400 0 -6400 0 0 -3098z m6156 2300 c-17 -16 -18 -16 -5 5 7
12 15 20 18 17 3 -2 -3 -12 -13 -22z m-196 -35 c0 -2 -12 -14 -27 -28 l-28
-24 24 28 c23 25 31 32 31 24z m690 -107 c0 -5 -2 -10 -4 -10 -3 0 -8 5 -11
10 -3 6 -1 10 4 10 6 0 11 -4 11 -10z m-5 -50 c-16 -16 -31 -27 -34 -24 -5 4
48 53 58 54 3 0 -8 -13 -24 -30z m-121 -281 c-10 -11 -28 -26 -39 -31 -14 -8
-12 -2 9 21 33 34 61 44 30 10z m-295 -142 c-13 -12 -30 -23 -37 -23 -7 0 -1
10 15 22 36 30 53 31 22 1z m-279 -81 c0 -2 -8 -10 -17 -17 -16 -13 -17 -12
-4 4 13 16 21 21 21 13z m334 -481 c-14 -19 -31 -35 -37 -35 -6 0 4 16 23 35
19 19 36 35 37 35 2 0 -8 -16 -23 -35z m-1373 -702 c13 -16 12 -17 -3 -4 -10
7 -18 15 -18 17 0 8 8 3 21 -13z m1820 -253 c32 -67 37 -202 11 -300 -11 -41
-16 -79 -12 -84 16 -16 139 193 140 237 0 9 4 17 8 17 11 0 32 -106 32 -163 0
-25 4 -48 9 -51 12 -8 31 49 31 92 0 45 13 33 33 -33 27 -85 31 -165 13 -230
-10 -31 -15 -60 -12 -63 9 -8 46 29 79 78 l29 45 -6 -155 c-3 -85 -9 -165 -12
-177 -9 -33 14 -29 28 5 6 15 21 56 33 91 l22 65 7 -35 c18 -96 25 -242 16
-344 -5 -60 -14 -171 -20 -245 -13 -158 -50 -397 -80 -525 -53 -227 -140 -425
-243 -548 -130 -155 -381 -417 -429 -448 -138 -89 -456 -113 -602 -45 -77 35
-365 231 -506 343 -219 176 -272 246 -383 518 -95 234 -219 646 -237 791 -11
86 -6 281 9 369 l7 40 29 -62 c16 -35 33 -63 38 -63 4 0 6 8 3 18 -13 40 -26
162 -25 237 l0 80 18 -50 c33 -96 37 -95 44 7 7 98 32 257 43 267 8 8 23 -14
74 -108 41 -78 69 -106 56 -58 -12 44 -27 185 -24 218 l3 34 34 -53 c18 -28
36 -52 41 -52 4 0 5 44 2 98 -5 116 11 117 27 2 20 -142 51 -203 51 -101 0 49
25 199 35 209 2 3 15 -8 27 -24 45 -59 193 -192 203 -182 3 3 -6 25 -19 49
-28 50 -52 122 -65 192 -7 39 -6 47 7 47 14 0 221 -202 275 -270 l28 -35 -5
40 c-3 22 -8 84 -12 138 -6 82 -4 97 8 97 25 0 181 -154 217 -214 19 -31 48
-93 65 -136 18 -44 35 -82 38 -86 4 -3 9 16 13 43 11 89 37 181 66 244 32 67
103 172 138 203 l21 19 0 -91 c0 -52 4 -92 10 -92 12 0 87 127 96 163 3 15 11
26 18 24 21 -7 37 -99 33 -194 -2 -51 -3 -93 -1 -93 1 0 33 51 70 113 57 95
137 220 151 237 8 10 23 -28 40 -102 9 -43 21 -78 25 -78 4 0 8 6 8 13 0 6 14
56 32 110 l33 98 22 -28 c13 -15 33 -48 44 -73z m-2236 -196 c9 -15 12 -23 6
-20 -11 7 -35 46 -28 46 3 0 12 -12 22 -26z m-281 -240 c5 -14 4 -15 -9 -4
-17 14 -19 20 -6 20 5 0 12 -7 15 -16z m3215 -585 c75 -75 100 -308 49 -455
-57 -163 -213 -328 -346 -369 -22 -6 -23 -5 -16 32 11 59 24 78 90 122 63 42
131 121 154 179 17 43 7 51 -16 13 -10 -17 -22 -31 -26 -31 -12 0 -10 14 5 30
6 8 2 6 -10 -4 -21 -18 -22 -17 -16 6 4 18 3 20 -6 8 -9 -12 -11 -10 -11 11 0
23 -4 26 -25 21 -14 -2 -28 -8 -31 -13 -3 -5 -9 -9 -13 -9 -14 0 37 96 68 129
26 28 28 34 19 65 -12 37 -5 71 12 61 6 -4 22 -29 35 -56 14 -27 30 -49 35
-49 15 0 12 15 -15 80 -27 64 -23 101 12 114 19 8 34 -7 66 -64 25 -46 32 -30
13 26 -18 54 -51 94 -77 94 -29 0 -90 -79 -136 -177 -25 -52 -46 -93 -48 -91
-2 2 1 41 7 88 16 135 51 207 123 251 42 27 69 24 104 -12z m3450 -195 c-9
-11 -8 -14 3 -14 8 0 20 6 27 13 11 10 13 9 7 -6 -3 -10 -6 -26 -6 -35 -1 -15
-2 -14 -11 2 -6 10 -14 14 -18 9 -3 -6 -18 -13 -33 -17 l-28 -6 20 32 c11 18
26 47 32 63 l13 30 3 -28 c2 -16 -2 -35 -9 -43z m37 29 c-10 -10 -19 5 -10 18
6 11 8 11 12 0 2 -7 1 -15 -2 -18z m-6340 -23 c52 -33 80 -76 113 -177 41
-119 39 -137 -6 -72 -104 154 -170 212 -213 189 -35 -19 -52 -123 -26 -169 13
-23 14 -20 18 42 5 81 26 113 56 84 14 -15 17 -36 17 -124 0 -70 4 -108 11
-110 13 -4 21 20 30 100 4 31 10 57 13 57 3 0 22 -28 41 -62 19 -34 52 -81 73
-105 47 -56 48 -78 1 -32 l-36 34 5 -56 c2 -35 -1 -65 -9 -80 -9 -18 -10 -27
-1 -39 7 -8 -5 -4 -25 9 -25 14 -38 18 -38 10 0 -23 85 -91 159 -126 67 -33
75 -39 96 -87 27 -61 20 -68 -47 -55 -128 23 -308 173 -377 313 -43 87 -54
150 -49 284 4 133 16 169 66 194 38 18 71 13 128 -22z m6494 -50 c0 -5 -5 -10
-11 -10 -5 0 -7 5 -4 10 3 6 8 10 11 10 2 0 4 -4 4 -10z m-40 -24 c0 -3 -4 -8
-10 -11 -5 -3 -10 -1 -10 4 0 6 5 11 10 11 6 0 10 -2 10 -4z m-204 -43 c-11
-11 -19 6 -11 24 8 17 8 17 12 0 3 -10 2 -21 -1 -24z m104 7 c0 -5 -4 -10 -10
-10 -5 0 -10 5 -10 10 0 6 5 10 10 10 6 0 10 -4 10 -10z m50 0 c0 -5 -4 -10
-10 -10 -5 0 -10 5 -10 10 0 6 5 10 10 10 6 0 10 -4 10 -10z m130 -10 c0 -5
-9 -10 -21 -10 -14 0 -19 -5 -16 -15 8 -20 -8 -28 -22 -11 -10 11 -7 18 11 30
25 18 48 21 48 6z m34 -65 c-11 -7 -15 -17 -10 -22 5 -4 11 -2 14 6 3 11 6 11
12 1 5 -8 2 -19 -6 -27 -16 -16 -19 -58 -4 -48 6 3 10 15 10 26 0 10 7 19 15
19 9 0 15 -9 15 -25 0 -14 5 -24 12 -22 18 3 21 -31 4 -49 -9 -8 -19 -13 -24
-10 -4 2 -14 1 -22 -5 -13 -7 -12 -9 3 -9 9 0 17 -3 17 -6 0 -15 -27 -53 -66
-93 -24 -24 -44 -48 -44 -53 0 -5 -3 -7 -8 -4 -4 2 -7 34 -7 70 0 36 -2 66 -5
66 -3 0 -5 24 -6 54 0 41 3 53 13 49 7 -3 13 0 13 6 0 6 7 11 15 11 8 0 15 5
15 11 0 6 -9 8 -20 4 -14 -5 -20 -2 -20 9 0 9 -4 16 -10 16 -5 0 -10 7 -10 15
0 8 9 15 20 15 11 0 20 -4 20 -10 0 -5 7 -10 15 -10 17 0 20 16 4 25 -7 5 -4
13 8 25 17 17 19 17 37 -2 18 -19 18 -20 0 -33z m-234 25 c9 -16 8 -20 -5 -20
-8 0 -15 9 -15 20 0 11 2 20 5 20 2 0 9 -9 15 -20z m40 10 c0 -5 -5 -10 -11
-10 -5 0 -7 5 -4 10 3 6 8 10 11 10 2 0 4 -4 4 -10z m30 0 c0 -5 -4 -10 -10
-10 -5 0 -10 5 -10 10 0 6 5 10 10 10 6 0 10 -4 10 -10z m220 -36 c0 -23 3
-26 28 -20 22 5 24 4 10 -4 -10 -6 -18 -21 -18 -32 0 -34 -17 -9 -28 40 -6 24
-6 42 -1 42 5 0 9 -12 9 -26z m-418 -14 c-4 -28 -22 -33 -22 -6 0 9 19 36 25
36 1 0 0 -13 -3 -30z m103 -1 c-4 -11 -2 -19 4 -19 6 0 11 6 11 14 0 17 38 32
50 19 10 -10 -17 -94 -34 -108 -16 -12 -14 -57 2 -63 7 -2 12 3 12 12 0 8 6
19 13 23 12 8 40 59 41 77 1 5 7 11 15 14 10 3 11 -2 6 -19 -4 -12 -7 -48 -6
-78 2 -31 3 -87 5 -126 1 -59 4 -70 19 -69 9 1 17 -2 17 -7 0 -5 -13 -9 -30
-9 -23 0 -28 3 -23 16 4 12 2 15 -8 12 -8 -3 -16 -13 -18 -24 -2 -10 -11 -24
-20 -31 -34 -26 -150 -52 -298 -68 l-62 -6 9 31 c5 16 6 30 2 30 -3 0 -1 5 6
12 7 7 12 20 12 30 0 10 6 21 14 24 8 3 14 22 14 51 1 54 14 72 37 53 9 -8 13
-20 9 -33 -4 -13 -2 -17 5 -13 6 4 11 14 11 22 0 8 4 14 10 14 15 0 51 43 46
56 -3 7 2 18 10 25 8 6 12 14 9 17 -3 3 0 11 6 18 6 8 8 21 5 30 -4 11 3 19
24 27 31 12 37 21 20 32 -22 13 -8 30 26 32 30 1 34 -1 29 -18z m-125 -28 c0
-6 -4 -13 -10 -16 -5 -3 -10 1 -10 9 0 9 5 16 10 16 6 0 10 -4 10 -9z m830 5
c0 -3 -4 -8 -10 -11 -5 -3 -10 -1 -10 4 0 6 5 11 10 11 6 0 10 -2 10 -4z
m-852 -75 c1 -32 -3 -40 -20 -45 -42 -10 -47 5 -18 52 26 42 38 41 38 -7z
m-3428 -30 c0 -14 -81 -83 -88 -75 -4 4 -2 9 5 11 18 7 63 51 63 63 0 5 5 10
10 10 6 0 10 -4 10 -9z m3980 -22 c0 -5 -4 -9 -10 -9 -5 0 -10 7 -10 16 0 8 5
12 10 9 6 -3 10 -10 10 -16z m25 -9 c3 -5 1 -10 -4 -10 -6 0 -11 5 -11 10 0 6
2 10 4 10 3 0 8 -4 11 -10z m-61 -15 c-6 -16 -24 -21 -24 -7 0 11 11 22 21 22
5 0 6 -7 3 -15z m286 -6 c0 -5 -4 -9 -10 -9 -5 0 -10 7 -10 16 0 8 5 12 10 9
6 -3 10 -10 10 -16z m-40 -9 c0 -5 -7 -10 -15 -10 -8 0 -15 5 -15 10 0 6 7 10
15 10 8 0 15 -4 15 -10z m64 -35 c-4 -8 -10 -15 -15 -15 -5 0 -9 -6 -9 -14 0
-8 -6 -16 -12 -19 -7 -2 -10 -8 -5 -12 4 -5 14 0 22 11 13 18 14 17 15 -18 0
-37 -13 -51 -24 -25 -3 9 -9 7 -19 -6 -11 -13 -17 -15 -22 -7 -4 7 -2 17 4 23
7 7 7 15 1 22 -12 15 29 75 52 75 11 0 15 -5 12 -15z m166 -25 c0 -5 -2 -10
-4 -10 -3 0 -8 5 -11 10 -3 6 -1 10 4 10 6 0 11 -4 11 -10z m-410 -22 c0 -7
-26 -21 -58 -31 -31 -10 -63 -21 -71 -24 -8 -3 -12 0 -9 8 3 8 11 14 19 15 34
2 38 5 33 19 -7 17 11 21 21 5 10 -16 25 -12 19 5 -5 11 1 15 20 15 14 0 26
-6 26 -12z m-130 -12 c0 -3 -4 -8 -10 -11 -5 -3 -10 -1 -10 4 0 6 5 11 10 11
6 0 10 -2 10 -4z m250 -26 c0 -5 -9 -10 -21 -10 -11 0 -17 5 -14 10 3 6 13 10
21 10 8 0 14 -4 14 -10z m-290 -16 c0 -11 -6 -14 -20 -9 -11 4 -20 2 -20 -4 0
-6 -6 -11 -12 -11 -14 1 29 40 43 40 5 0 9 -7 9 -16z m520 6 c0 -5 -4 -10 -10
-10 -5 0 -10 5 -10 10 0 6 5 10 10 10 6 0 10 -4 10 -10z m70 0 c0 -5 -5 -10
-11 -10 -5 0 -7 5 -4 10 3 6 8 10 11 10 2 0 4 -4 4 -10z m-205 -30 c3 -5 1
-10 -4 -10 -6 0 -11 5 -11 10 0 6 2 10 4 10 3 0 8 -4 11 -10z m-259 -24 c-16
-13 -26 -30 -23 -37 4 -10 6 -8 6 4 2 31 26 13 29 -21 3 -28 0 -32 -22 -32
-32 0 -43 -18 -14 -22 12 -2 23 -8 25 -15 3 -9 -10 -8 -48 3 -71 21 -80 23
-189 41 -149 23 -153 26 -41 34 57 4 107 12 110 17 8 11 100 36 108 29 3 -4
15 0 27 8 11 8 30 15 41 15 18 -1 17 -3 -9 -24z m179 -46 c-5 -8 -11 -8 -17
-2 -6 6 -7 16 -3 22 5 8 11 8 17 2 6 -6 7 -16 3 -22z m95 -86 c0 -46 -4 -84
-9 -84 -5 0 -7 9 -4 20 4 13 -3 27 -18 40 -20 16 -21 21 -10 29 10 6 12 20 8
44 -4 23 -1 37 6 40 23 8 27 -5 27 -89z m121 73 c-17 -17 -13 -27 10 -27 17 0
19 -3 10 -14 -6 -8 -21 -16 -32 -19 -17 -5 -18 -3 -8 9 10 12 8 17 -7 28 -15
12 -16 16 -5 29 7 9 19 13 27 10 11 -4 12 -9 5 -16z m-271 -17 c0 -5 -4 -10
-10 -10 -5 0 -10 5 -10 10 0 6 5 10 10 10 6 0 10 -4 10 -10z m57 -38 c3 -80
-54 -118 -87 -57 -18 34 15 87 35 55 4 -6 11 -8 16 -4 5 3 7 10 3 15 -8 14 3
39 18 39 9 0 14 -17 15 -48z m-461 -18 c90 -14 225 -53 276 -80 29 -15 58 -61
58 -91 0 -10 6 -30 14 -44 12 -24 12 -28 -5 -43 -11 -9 -19 -23 -19 -31 0 -9
-5 -13 -11 -10 -6 4 -8 20 -4 38 5 29 5 30 -8 15 -16 -21 -34 -23 -39 -6 -3 8
-12 5 -27 -9 -22 -20 -22 -22 -4 -32 17 -10 16 -10 -4 -11 -16 0 -23 -6 -23
-19 0 -12 -9 -20 -25 -23 -20 -4 -30 1 -47 25 -21 29 -22 29 -29 8 -11 -27
-29 -27 -29 0 0 12 -5 19 -12 16 -7 -2 -12 -14 -10 -25 2 -12 -2 -22 -7 -22
-6 0 -11 7 -11 15 0 8 -7 15 -15 15 -9 0 -26 7 -39 15 -13 9 -30 14 -37 13
-17 -4 -25 32 -9 42 8 5 7 9 -4 13 -12 5 -17 -3 -22 -33 -4 -22 -12 -40 -19
-40 -7 0 -16 -8 -20 -17 -6 -17 -7 -17 -16 0 -13 22 -29 13 -22 -13 4 -14 0
-20 -11 -20 -10 0 -15 4 -12 9 4 5 3 16 0 24 -6 15 -20 17 -41 4 -14 -9 -45 2
-37 14 3 5 1 16 -4 26 -9 15 -11 14 -21 -5 -9 -17 -16 -20 -34 -13 -24 9 -47
-7 -47 -33 0 -7 -7 -17 -16 -20 -9 -4 -14 -13 -10 -22 3 -9 2 -12 -5 -9 -6 4
-17 -1 -24 -11 -16 -21 -14 -24 -20 51 -1 11 -5 28 -10 39 -5 11 -4 26 3 37
17 26 15 36 -8 42 -11 3 -20 13 -20 24 0 13 3 15 9 5 12 -20 33 11 37 56 7 83
16 120 32 135 30 27 246 28 408 1z m756 -19 c3 -14 1 -28 -3 -31 -5 -3 -9 1
-9 10 0 8 -3 21 -6 30 -3 9 -2 16 4 16 5 0 12 -11 14 -25z m-32 -29 c0 -14 -7
-32 -16 -41 -20 -20 -29 -13 -15 12 5 10 12 26 15 36 8 25 16 21 16 -7z m159
-49 c1 -5 -3 -5 -9 -2 -5 3 -10 16 -9 28 0 21 1 21 9 2 5 -11 9 -24 9 -28z
m-49 23 c0 -5 -4 -10 -10 -10 -5 0 -10 5 -10 10 0 6 5 10 10 10 6 0 10 -4 10
-10z m-20 -66 c0 -8 -4 -12 -10 -9 -5 3 -10 10 -10 16 0 5 5 9 10 9 6 0 10 -7
10 -16z m-381 -61 c1 -7 7 -13 14 -13 9 0 14 -14 15 -39 2 -46 -13 -63 -22
-26 -4 14 -11 25 -16 25 -6 0 -10 9 -10 19 0 11 -4 22 -9 25 -5 3 -14 20 -20
36 l-10 31 29 -23 c16 -13 29 -29 29 -35z m249 -4 c9 -1 26 0 36 1 13 1 17 -3
13 -14 -4 -9 -2 -16 3 -16 6 0 8 -10 6 -22 -3 -13 -5 -31 -5 -40 -1 -10 -8
-18 -16 -18 -17 0 -20 16 -4 26 8 4 8 9 -1 18 -8 8 -13 7 -20 -4 -5 -8 -12
-11 -17 -7 -4 4 -2 17 5 28 10 16 10 20 -1 25 -8 3 -18 4 -23 3 -32 -6 -45 2
-38 24 3 12 14 30 23 41 15 18 16 17 19 -13 2 -21 9 -31 20 -32z m-1158 -39
c0 -5 -4 -10 -10 -10 -5 0 -10 5 -10 10 0 6 5 10 10 10 6 0 10 -4 10 -10z
m858 -34 c-2 -1 -12 -8 -22 -16 -18 -14 -18 -14 -6 7 8 12 18 19 23 16 4 -3 7
-6 5 -7z m-94 -38 c-11 -17 -24 -6 -24 19 0 26 1 26 14 8 8 -11 12 -23 10 -27z
m-759 1 c6 -19 0 -38 -9 -28 -10 12 -16 49 -7 49 5 0 13 -9 16 -21z m155 -10
c0 -11 -3 -11 -24 -3 -23 9 -20 23 4 17 11 -3 20 -9 20 -14z m40 -3 c0 -3 -4
-8 -10 -11 -5 -3 -10 -1 -10 4 0 6 5 11 10 11 6 0 10 -2 10 -4z m280 0 c0 -3
-4 -8 -10 -11 -5 -3 -10 -1 -10 4 0 6 5 11 10 11 6 0 10 -2 10 -4z m830 -16
c0 -5 -4 -10 -10 -10 -5 0 -10 5 -10 10 0 6 5 10 10 10 6 0 10 -4 10 -10z
m-9577 -111 c40 -6 76 -15 81 -19 5 -5 14 -6 21 -4 7 3 16 1 20 -5 3 -6 17
-11 30 -11 13 0 27 -5 31 -12 5 -7 2 -9 -9 -5 -11 4 -14 2 -10 -9 5 -13 8 -13
23 1 21 19 47 11 178 -52 80 -38 92 -47 86 -65 -5 -17 -3 -18 14 -9 15 8 23 7
31 -3 6 -7 8 -16 4 -20 -4 -4 -1 -4 8 -1 8 3 26 -3 39 -15 13 -11 26 -20 29
-20 21 0 191 -183 191 -206 0 -5 -5 -2 -10 6 -6 10 -10 11 -10 3 0 -14 35 -53
48 -53 11 0 50 -65 58 -97 4 -15 10 -30 13 -33 21 -17 66 -163 76 -245 10 -78
12 -95 23 -174 7 -48 8 -133 2 -242 -8 -151 -12 -176 -43 -270 -34 -99 -43
-132 -54 -189 -6 -32 -12 -38 -22 -21 -5 8 -15 10 -22 7 -8 -4 -4 1 9 12 12
11 22 28 22 39 0 10 4 25 10 33 5 8 6 17 2 20 -4 3 -12 14 -18 25 -7 13 -26
22 -55 26 -23 3 -45 11 -47 18 -2 6 -10 18 -19 26 -16 17 -24 93 -16 155 5 38
23 57 23 25 0 -22 9 -19 38 12 22 24 23 28 9 31 -31 6 -18 27 15 26 39 -1 46
-16 18 -42 -16 -15 -18 -22 -9 -27 14 -9 39 20 39 45 0 9 11 22 25 28 14 6 25
18 25 27 0 20 -16 19 -24 -1 -10 -27 -31 -9 -32 27 0 19 -1 71 -2 117 -2 87
-14 106 -29 45 -7 -31 -13 -37 -31 -35 -18 3 -22 -2 -22 -22 0 -41 -19 -30
-26 15 -4 25 -10 37 -16 31 -6 -6 -19 0 -34 15 -27 27 -32 45 -9 37 10 -4 15
0 15 11 0 11 -5 15 -15 11 -9 -3 -15 0 -15 9 0 8 -12 27 -27 42 -28 27 -28 27
-31 5 -5 -35 -19 -26 -18 12 1 19 5 32 10 29 5 -4 7 6 4 21 -3 14 -1 26 4 26
6 0 7 8 3 18 -12 31 -11 84 2 89 7 3 13 12 13 20 0 12 -3 13 -13 5 -22 -19
-59 13 -51 44 4 14 2 24 -4 24 -6 0 -12 15 -14 33 -2 26 -7 32 -26 31 l-22 -1
20 22 c25 27 26 38 0 30 -11 -4 -20 -2 -20 4 0 6 -4 11 -10 11 -5 0 -10 -7
-10 -16 0 -8 -5 -12 -11 -8 -8 4 -8 9 0 17 7 7 7 14 0 24 -8 9 -8 13 0 13 6 0
11 4 11 10 0 5 -7 7 -15 4 -9 -4 -15 0 -15 10 0 9 -8 16 -20 16 -11 0 -20 7
-20 15 0 15 -12 20 -23 9 -10 -10 14 -64 29 -64 14 0 19 -12 8 -22 -7 -8 -54
36 -54 51 0 8 -8 10 -20 6 -14 -5 -20 -2 -20 9 0 10 9 16 23 16 15 0 18 3 9 8
-15 10 -5 42 14 42 7 0 18 -8 23 -17 9 -16 10 -17 11 -1 0 9 -9 20 -21 23 -24
8 -69 -28 -69 -56 0 -28 -29 -32 -36 -4 -4 16 -13 25 -25 25 -10 0 -19 5 -19
11 0 6 -7 9 -15 5 -20 -7 -45 3 -45 19 0 17 -23 25 -41 14 -11 -7 -10 -9 4 -9
10 0 15 -5 12 -10 -4 -6 -1 -17 5 -25 17 -20 3 -38 -19 -25 -12 6 -22 5 -29
-2 -17 -17 -27 -1 -12 17 7 9 10 18 6 22 -3 3 -6 1 -6 -6 0 -9 -8 -11 -26 -7
-15 4 -32 2 -41 -6 -8 -6 -28 -11 -44 -10 -22 2 -29 -2 -29 -16 0 -10 -5 -23
-10 -28 -7 -7 -5 -16 4 -29 12 -16 16 -17 30 -6 14 12 16 11 16 -8 0 -11 -3
-20 -7 -19 -5 1 -20 -4 -35 -10 -25 -10 -27 -14 -18 -38 14 -35 -6 -64 -24
-38 -7 9 -21 15 -32 13 -14 -3 -20 -14 -22 -44 l-2 -40 15 28 c9 16 21 25 27
21 8 -5 7 -10 -3 -18 -16 -13 -19 -54 -5 -76 9 -13 8 -13 -8 0 -16 12 -20 12
-34 -7 -10 -12 -26 -23 -36 -25 -24 -4 -34 -28 -12 -28 19 0 21 -16 4 -23 -7
-3 0 -6 15 -6 19 -1 26 -5 21 -13 -4 -6 1 -17 11 -24 16 -12 17 -14 2 -20 -10
-3 -24 -4 -32 -1 -22 9 -29 -13 -9 -28 18 -13 18 -14 1 -20 -11 -5 -16 -14
-12 -25 4 -14 -1 -19 -27 -23 -39 -6 -80 16 -72 38 4 9 0 15 -10 15 -9 0 -16
-5 -16 -10 0 -7 -18 -8 -50 -4 -41 5 -50 4 -50 -9 0 -14 47 -37 77 -37 8 0 27
-9 43 -20 15 -11 30 -16 34 -12 8 7 26 -17 26 -35 0 -7 -6 -13 -14 -13 -17 0
-28 -24 -20 -45 4 -8 1 -15 -5 -15 -6 0 -11 5 -11 10 0 6 -13 10 -28 10 -15 0
-33 5 -40 12 -9 9 -15 8 -25 -7 -10 -12 -16 -14 -21 -7 -13 21 -34 13 -44 -17
-9 -24 -14 -28 -37 -23 -16 3 -30 13 -32 23 -3 11 -14 19 -25 19 -17 0 -18 -2
-8 -15 18 -22 -2 -42 -21 -22 -14 14 -52 9 -48 -7 4 -17 -24 -43 -42 -39 -27
7 -23 -10 9 -42 32 -33 30 -32 -131 63 -101 59 -114 69 -87 70 16 0 39 3 50 7
15 5 18 2 15 -13 -3 -16 1 -19 18 -14 12 3 32 12 44 20 l23 14 -21 17 c-21 16
-20 17 33 40 29 13 61 27 70 32 10 5 24 9 32 9 7 0 19 7 26 15 7 8 18 15 24
14 32 -4 41 2 41 30 0 19 -4 27 -12 24 -7 -3 -13 1 -13 8 0 11 -2 11 -8 1 -6
-9 -18 1 -41 33 -18 25 -37 45 -42 45 -5 0 -7 11 -3 24 3 13 1 27 -5 30 -7 4
-8 1 -5 -8 4 -12 0 -16 -16 -16 -18 0 -21 4 -16 23 14 50 18 97 9 97 -5 0 -15
18 -22 40 -6 22 -16 40 -21 40 -6 0 -10 6 -10 13 0 29 -25 67 -41 62 -12 -4
-16 2 -16 25 0 32 6 37 25 18 14 -14 17 -11 26 20 5 13 3 22 -3 22 -6 0 -8 7
-5 15 4 8 11 15 18 15 6 0 17 10 25 21 11 19 11 21 -3 16 -9 -4 -16 -2 -16 3
0 6 -9 10 -20 10 -17 0 -20 -7 -20 -50 0 -27 -4 -50 -9 -50 -18 0 -21 17 -12
64 8 44 0 63 -13 30 -3 -8 -10 -13 -15 -9 -6 3 -8 12 -5 20 4 8 -1 18 -10 21
-9 3 -16 12 -16 20 0 19 16 18 24 -2 5 -13 9 -14 21 -4 14 12 14 15 0 30 -14
16 -11 21 42 70 199 181 504 277 756 239z m2277 -167 c0 -4 -21 -19 -47 -33
l-48 -24 100 -3 c55 -1 104 -7 108 -11 10 -10 -73 -98 -136 -144 -31 -23 -36
-31 -26 -43 6 -8 17 -14 25 -14 25 0 26 -22 1 -48 -25 -26 -80 -136 -108 -215
-7 -20 -16 -36 -20 -35 -3 2 -26 28 -51 58 -24 30 -51 56 -59 58 -10 2 -28
-29 -57 -101 -47 -113 -139 -270 -153 -261 -5 3 -9 29 -10 57 -1 29 -4 63 -8
77 -13 48 -24 0 -29 -138 l-5 -135 -24 64 c-17 42 -27 94 -30 152 -7 104 -20
109 -43 16 -31 -121 -42 -117 -36 11 7 131 31 231 81 335 87 179 266 317 475
364 103 23 100 23 100 13z m3425 -102 c192 -93 350 -370 379 -665 6 -60 0 -59
-24 8 -6 16 -15 27 -21 25 -7 -2 -29 -33 -50 -68 -22 -35 -39 -57 -39 -49 -2
90 -28 189 -49 189 -4 0 -20 -34 -36 -75 -30 -81 -45 -94 -45 -42 0 56 -10 77
-36 77 -28 0 -29 7 -9 34 47 63 -27 186 -148 249 -34 18 -29 22 50 38 78 16
72 27 -40 69 -45 17 -99 38 -119 47 -38 16 -50 33 -24 33 8 0 27 5 42 10 21 8
24 14 16 22 -20 20 -14 28 46 55 l57 26 -40 18 c-22 10 -48 19 -57 19 -10 0
-18 5 -18 11 0 19 101 0 165 -31z m-3088 -92 c18 -29 47 -89 64 -133 28 -69
33 -92 33 -172 1 -51 5 -93 10 -93 4 0 33 23 63 50 30 28 58 50 62 50 4 0 0
-24 -9 -52 -37 -114 -35 -126 18 -90 15 10 53 33 85 51 l58 33 -1 -118 c-1
-66 -1 -123 -1 -128 1 -5 36 26 78 68 43 42 81 76 85 76 9 0 23 -48 45 -158
10 -45 22 -81 28 -79 5 2 26 32 44 68 l35 64 19 -60 c11 -33 22 -97 24 -143 3
-45 9 -84 13 -87 4 -3 19 21 33 53 73 166 69 158 77 137 5 -11 9 -50 9 -87 1
-38 4 -68 7 -68 3 0 37 34 76 75 38 41 74 75 80 75 12 0 82 -150 103 -222 9
-32 19 -58 23 -58 4 0 23 28 42 61 40 70 124 151 198 192 l51 28 7 -28 c12
-47 51 -130 90 -188 44 -68 41 -82 -6 -20 -18 24 -40 47 -48 50 -20 8 66 -92
106 -123 l33 -25 -11 28 c-6 15 -13 60 -17 99 -5 71 -5 73 40 156 25 47 49
102 52 123 9 47 12 46 158 -34 59 -32 110 -59 113 -59 2 0 1 49 -2 109 -5 71
-3 110 4 115 5 3 44 -26 85 -64 l75 -70 6 47 c3 27 8 74 11 106 l7 58 40 -45
c46 -53 63 -57 73 -18 16 68 129 320 168 379 32 48 38 40 10 -14 -19 -37 -24
-59 -20 -96 7 -75 16 -78 126 -40 9 3 -9 -20 -39 -50 -33 -35 -50 -60 -45 -65
6 -5 31 -15 58 -22 26 -7 47 -16 47 -20 0 -12 -44 -47 -87 -69 -24 -12 -61
-21 -88 -21 -31 0 -45 -4 -45 -13 0 -8 24 -45 54 -83 48 -62 86 -123 86 -139
0 -3 -23 6 -51 21 -28 14 -53 23 -56 20 -10 -9 28 -139 63 -220 19 -43 32 -81
29 -84 -3 -3 -25 13 -48 36 -24 23 -45 42 -49 42 -10 0 -17 -59 -20 -152 -1
-49 -4 -88 -7 -88 -3 0 -20 32 -38 70 -17 39 -35 70 -40 70 -5 0 -14 -30 -20
-66 -12 -70 -83 -274 -95 -274 -5 0 -8 19 -8 43 0 55 -19 122 -31 110 -5 -5
-18 -41 -29 -80 -26 -94 -80 -210 -131 -283 -23 -33 -44 -60 -46 -60 -2 0 -1
22 3 49 9 73 -10 71 -37 -4 -25 -72 -39 -83 -39 -31 0 72 -49 250 -65 234 -2
-1 -15 -34 -30 -73 -31 -85 -87 -190 -163 -308 l-57 -89 -3 91 c-1 50 -6 91
-10 91 -4 0 -17 -21 -30 -48 -47 -96 -113 -212 -121 -212 -5 0 -12 12 -16 28
-9 40 -67 162 -76 162 -9 0 -21 -71 -23 -131 0 -22 -3 -39 -6 -39 -9 0 -131
165 -182 245 -25 39 -64 107 -88 152 -24 45 -47 80 -51 77 -11 -7 -21 -78 -28
-208 l-6 -119 -78 111 c-44 62 -82 112 -86 112 -5 0 -14 -42 -20 -92 -18 -128
-18 -129 -47 -93 -40 48 -62 98 -70 154 -6 49 -7 51 -25 35 -10 -9 -27 -40
-38 -68 l-19 -51 -10 40 c-6 22 -18 70 -28 108 -9 37 -20 67 -25 67 -5 0 -10
-24 -11 -52 -2 -83 -3 -88 -12 -90 -5 -2 -31 40 -58 92 -43 84 -50 104 -55
178 -3 45 -10 82 -15 82 -4 0 -13 -20 -20 -45 -7 -25 -15 -45 -19 -45 -22 0
-17 162 7 224 5 14 3 17 -7 14 -8 -2 -30 -35 -49 -73 l-35 -68 -3 151 c-1 87
-7 152 -12 152 -5 0 -19 -20 -30 -45 -11 -25 -22 -45 -24 -45 -2 0 1 21 5 47
12 62 -4 76 -25 23 -9 -22 -16 -47 -16 -55 0 -8 -4 -15 -9 -15 -12 0 -21 62
-21 146 0 61 5 81 33 138 43 85 24 88 -41 5 -44 -58 -47 -60 -50 -35 -5 39 17
166 33 200 21 41 19 46 -15 40 -35 -8 -35 -8 -12 77 20 70 19 89 -4 89 -31 0
-54 38 -54 90 0 28 3 50 8 50 4 0 16 -14 27 -30 11 -16 26 -30 33 -30 18 0 15
36 -13 123 -24 75 -33 167 -17 167 4 0 22 -24 39 -52z m-3442 -59 c4 -10 4
-23 0 -28 -3 -6 3 -14 12 -20 10 -5 14 -13 10 -18 -11 -10 -37 25 -37 48 0 10
-4 21 -10 24 -16 10 -12 25 5 19 8 -3 17 -14 20 -25z m-40 -49 c-3 -5 -11 -10
-16 -10 -6 0 -7 5 -4 10 3 6 11 10 16 10 6 0 7 -4 4 -10z m908 -5 c1 -6 -8
-14 -20 -20 -13 -5 -23 -13 -23 -17 0 -5 -9 -8 -20 -8 -25 0 -26 18 -2 27 9 4
23 13 31 20 14 15 31 14 34 -2z m183 -7 c4 -7 4 -10 -1 -6 -4 4 -14 3 -22 -3
-10 -9 -13 -8 -13 5 0 19 26 22 36 4z m-991 -119 c-10 -15 -25 -10 -19 6 4 8
10 12 15 9 5 -3 7 -10 4 -15z m75 -134 c0 -8 -4 -15 -10 -15 -5 0 -10 7 -10
15 0 8 5 15 10 15 6 0 10 -7 10 -15z m570 -74 c0 -6 -4 -13 -10 -16 -5 -3 -10
1 -10 9 0 9 5 16 10 16 6 0 10 -4 10 -9z m-420 -161 c0 -5 -7 -10 -16 -10 -8
0 -12 5 -9 10 3 6 10 10 16 10 5 0 9 -4 9 -10z m4745 -66 c-15 -81 -35 -107
-35 -46 0 45 23 112 38 112 6 0 4 -27 -3 -66z m-3555 6 c0 -4 -6 -10 -14 -13
-10 -4 -12 0 -9 14 5 18 23 18 23 -1z m-30 -51 c0 -6 -4 -7 -10 -4 -5 3 -10
11 -10 16 0 6 5 7 10 4 6 -3 10 -11 10 -16z m-1585 -19 c3 -6 -1 -7 -9 -4 -18
7 -21 14 -7 14 6 0 13 -4 16 -10z m745 -11 c0 -6 -4 -7 -10 -4 -5 3 -10 11
-10 16 0 6 5 7 10 4 6 -3 10 -11 10 -16z m-552 -25 c-10 -10 -28 6 -28 24 0
15 1 15 17 -1 9 -9 14 -19 11 -23z m1312 16 c0 -5 -7 -10 -16 -10 -8 0 -12 5
-9 10 3 6 10 10 16 10 5 0 9 -4 9 -10z m160 -22 c0 -6 -6 -5 -15 2 -8 7 -15
14 -15 16 0 2 7 1 15 -2 8 -4 15 -11 15 -16z m-119 1 c11 -5 16 -15 13 -21 -4
-6 -3 -8 3 -5 14 9 59 -33 66 -61 3 -13 -1 -39 -9 -59 -12 -28 -14 -59 -8
-152 3 -64 11 -125 17 -136 12 -25 64 -75 76 -75 5 0 17 -7 25 -16 20 -19 11
-37 -46 -92 -51 -50 -93 -61 -140 -37 -18 10 -43 23 -56 29 -12 6 -20 16 -18
23 6 13 -28 46 -37 36 -10 -10 -8 -33 2 -30 5 1 9 -2 10 -8 0 -5 -10 -10 -22
-9 -40 2 -82 -66 -71 -113 4 -16 2 -28 -7 -34 -11 -8 -9 -9 5 -7 15 2 22 -5
27 -27 5 -16 14 -49 21 -73 11 -39 11 -44 -10 -64 -35 -36 -59 -15 -82 72 -22
83 -29 94 -46 79 -12 -9 -14 -22 -9 -48 3 -20 9 -58 12 -84 5 -47 4 -49 -18
-45 -16 2 -23 9 -21 19 1 9 -5 22 -13 29 -9 7 -15 27 -14 49 l1 36 8 -30 8
-30 1 27 c2 45 40 108 65 108 17 0 18 2 6 10 -26 17 -48 11 -54 -15 -4 -14
-13 -25 -20 -25 -11 0 -14 13 -12 50 1 28 -1 50 -4 50 -3 0 -5 14 -6 30 -1 25
3 30 21 30 33 0 49 23 35 49 -6 12 -15 21 -20 21 -6 0 -10 7 -10 15 0 9 6 12
15 9 12 -5 14 0 8 26 -5 29 -4 32 15 26 36 -12 176 -10 214 3 138 46 156 270
30 383 l-40 37 28 9 c16 6 32 7 36 4 5 -4 2 1 -5 10 -7 9 -10 22 -6 28 8 13
12 13 36 -1z m-806 -9 c3 -6 -1 -7 -9 -4 -18 7 -21 14 -7 14 6 0 13 -4 16 -10z
m740 -20 c-3 -5 -10 -10 -16 -10 -5 0 -9 5 -9 10 0 6 7 10 16 10 8 0 12 -4 9
-10z m244 -67 c-1 -37 -1 -37 -8 -8 -7 28 -5 45 5 45 2 0 3 -17 3 -37z m51 17
c0 -5 -4 -10 -10 -10 -5 0 -10 5 -10 10 0 6 5 10 10 10 6 0 10 -4 10 -10z
m5297 -42 c-2 -13 -4 -5 -4 17 -1 22 1 32 4 23 2 -10 2 -28 0 -40z m-640 -15
c-3 -10 -5 -4 -5 12 0 17 2 24 5 18 2 -7 2 -21 0 -30z m-4652 17 c3 -5 1 -10
-4 -10 -6 0 -11 5 -11 10 0 6 2 10 4 10 3 0 8 -4 11 -10z m5315 -74 c0 -7 14
-32 30 -54 17 -23 26 -42 20 -42 -5 0 -23 24 -40 53 -31 54 -37 73 -20 62 6
-3 10 -12 10 -19z m-5373 -28 c-3 -8 -6 -5 -6 6 -1 11 2 17 5 13 3 -3 4 -12 1
-19z m776 2 c-3 -12 -8 -19 -11 -16 -5 6 5 36 12 36 2 0 2 -9 -1 -20z m4622
-101 c5 -6 2 -9 -8 -9 -15 0 -16 -3 -6 -21 16 -31 -5 -15 -32 23 l-23 31 30
-7 c16 -4 33 -12 39 -17z m-4697 -84 c-12 -24 -23 -43 -26 -41 -4 5 36 86 43
86 3 0 -5 -20 -17 -45z m74 -42 c-5 -24 -6 -25 -12 -8 -8 21 -4 35 9 35 5 0 6
-12 3 -27z m-2 -513 c-6 -52 -20 -135 -31 -183 -19 -88 -81 -414 -94 -494 -8
-49 -11 -50 -39 -24 -52 46 -280 193 -356 229 -267 125 -494 189 -647 180
l-65 -3 -14 40 c-19 54 -17 65 4 34 19 -28 25 -28 105 9 54 24 67 27 67 12 0
-5 7 -10 15 -10 8 0 15 4 15 9 0 5 19 29 43 52 42 43 42 44 45 124 l4 82 41 9
42 9 1 65 c2 89 1 85 30 99 22 10 26 9 21 -3 -3 -8 -2 -27 3 -43 16 -52 52
-322 47 -345 -6 -20 -39 -47 -130 -102 -22 -14 -26 -20 -17 -31 10 -12 22 -9
72 18 86 45 115 76 122 134 4 27 2 71 -3 98 -5 28 -13 89 -17 138 l-7 87 25 0
c51 0 138 69 138 109 1 13 3 12 12 -3 8 -15 8 -21 0 -24 -17 -5 -15 -22 3 -22
8 0 15 7 15 16 0 10 6 14 14 11 8 -3 17 1 20 9 9 23 26 16 26 -10 0 -30 15
-42 24 -19 5 12 9 14 18 5 9 -9 7 -19 -10 -41 -20 -27 -20 -41 0 -41 4 0 8 7
8 15 0 8 7 15 15 15 11 0 14 -7 10 -27 -5 -27 -5 -27 6 -5 7 12 16 22 22 22
14 0 36 -32 37 -52 0 -10 5 -18 11 -18 5 0 7 -4 4 -10 -3 -5 1 -10 9 -10 9 0
16 -7 16 -16 0 -9 6 -14 13 -11 6 2 11 11 9 21 -2 9 4 16 13 16 8 0 15 -7 15
-17 0 -9 3 -13 7 -10 3 4 12 2 19 -3 9 -8 18 -4 33 15 11 15 25 24 31 20 14
-9 70 4 70 16 0 6 -9 7 -20 4 -19 -6 -20 -3 -14 22 10 41 23 51 38 31 7 -10
28 -21 47 -24 27 -5 32 -4 22 6 -9 10 -8 16 3 28 11 10 12 17 4 22 -7 4 -8 15
-1 31 5 14 8 40 7 59 -1 19 4 41 11 48 7 7 14 32 15 55 2 23 4 -41 6 -143 2
-102 -2 -228 -8 -280z m5178 403 c-1 -26 -10 -55 -20 -67 l-17 -21 -1 23 c0
12 4 22 8 22 5 0 9 14 10 30 0 23 -4 30 -19 30 -10 0 -19 5 -19 10 0 6 9 10
20 10 11 0 20 5 20 11 0 5 5 7 10 4 6 -4 10 -27 8 -52z m-6510 -2 c23 -7 42
-17 42 -23 0 -7 -5 -6 -15 2 -9 7 -26 9 -45 5 -18 -4 -30 -3 -30 3 0 6 -3 19
-6 29 -4 11 -3 14 3 7 4 -7 27 -17 51 -23z m6222 8 c0 9 6 11 18 6 9 -4 31 -9
47 -12 45 -7 56 -30 29 -58 -12 -12 -15 -26 -10 -55 5 -32 3 -40 -9 -40 -13 0
-15 -7 -9 -36 8 -42 -4 -54 -53 -54 -37 0 -37 1 -21 -37 6 -15 10 -39 9 -52
-2 -14 1 -21 7 -17 6 3 13 2 16 -3 4 -5 1 -13 -5 -16 -13 -9 -35 21 -45 60 -3
17 -8 35 -9 42 -7 29 -21 42 -35 33 -12 -8 -13 -16 -2 -56 11 -41 11 -49 -2
-56 -8 -5 -13 -15 -10 -23 4 -9 0 -15 -8 -15 -14 0 -38 76 -38 120 0 24 -17
35 -34 21 -7 -6 -17 -7 -22 -3 -4 4 -3 0 4 -10 7 -9 17 -39 21 -67 7 -47 7
-51 -10 -46 -14 5 -19 1 -19 -14 0 -25 -13 -27 -35 -4 -38 37 -46 102 -15 110
22 6 23 24 2 31 -7 2 -12 -3 -12 -11 0 -9 -10 -14 -30 -13 -16 1 -30 4 -30 9
0 4 -4 7 -10 7 -5 0 -10 -15 -10 -32 0 -23 3 -29 9 -19 6 10 11 4 19 -20 21
-66 19 -84 -8 -87 -14 -2 -31 -9 -37 -14 -10 -8 -13 23 -13 153 0 186 4 209
32 209 16 0 18 -3 9 -13 -6 -8 -9 -16 -6 -19 3 -2 7 -24 10 -49 3 -24 10 -46
16 -47 5 -2 16 -10 23 -18 12 -11 15 -11 19 1 3 7 1 16 -6 19 -7 2 -2 5 10 5
12 1 25 -3 28 -9 8 -13 72 -13 80 0 3 5 29 9 57 8 42 -2 53 1 69 21 23 28 23
38 4 116 -18 75 -18 85 0 61 9 -12 15 -15 15 -7z m200 11 c0 -5 -5 -10 -11
-10 -5 0 -7 5 -4 10 3 6 8 10 11 10 2 0 4 -4 4 -10z m-53 -16 c-3 -3 -12 -4
-19 -1 -8 3 -5 6 6 6 11 1 17 -2 13 -5z m85 -55 c-25 -23 -28 -23 -35 -4 -4 9
4 19 21 28 33 16 41 2 14 -24z m-6449 1 c-4 -16 -8 -18 -19 -9 -16 13 -10 29
11 29 8 0 11 -7 8 -20z m842 -31 c-9 -14 -34 21 -28 39 4 9 9 8 20 -8 8 -11
11 -25 8 -31z m95 37 c0 -3 -14 -19 -31 -36 -33 -32 -55 -34 -26 -2 10 10 17
24 17 30 0 7 9 12 20 12 11 0 20 -2 20 -4z m4501 -272 c83 -416 91 -503 94
-994 2 -318 7 -448 18 -515 17 -100 17 -99 -52 -137 -21 -12 -33 -27 -38 -48
-4 -21 -14 -35 -30 -41 -37 -14 -43 -11 -43 20 0 18 -8 34 -22 43 -18 12 -23
27 -26 81 -2 37 -9 67 -14 67 -6 0 -36 -22 -67 -48 -59 -51 -115 -92 -125 -92
-3 0 -6 16 -6 35 0 19 -4 35 -9 35 -5 0 -23 -24 -40 -52 -59 -103 -59 -103
-137 -92 -54 7 -68 12 -65 24 26 97 13 170 -34 192 -14 6 -25 14 -25 17 1 3
30 28 66 54 68 50 73 67 22 67 -16 0 -69 18 -116 40 -83 39 -85 41 -67 60 9
10 39 34 66 52 27 18 49 36 49 39 0 4 -13 12 -28 18 -16 7 -57 40 -91 75 l-62
62 52 35 c29 19 64 41 78 48 l26 15 -33 10 c-32 9 -112 88 -112 110 0 6 15 21
34 34 31 21 34 28 40 90 8 80 51 330 72 422 17 73 67 202 59 155 -4 -26 1 -33
31 -52 43 -28 46 -28 68 -4 14 15 16 28 11 53 l-7 33 21 -19 c11 -11 21 -25
21 -32 0 -7 6 -14 13 -17 10 -4 10 -7 0 -18 -17 -17 -16 -29 1 -29 21 0 29 54
15 95 -7 19 -17 35 -21 35 -4 0 -17 20 -29 45 -12 25 -25 45 -30 45 -5 0 -8 6
-7 13 2 6 -3 11 -10 9 -10 -2 -10 2 -2 18 12 22 22 27 15 8 -3 -8 4 -13 20
-13 14 0 24 4 22 10 -2 5 6 15 17 21 12 6 20 16 18 23 -1 7 3 11 9 9 7 -2 13
-23 13 -45 1 -33 -1 -39 -11 -31 -24 19 -13 -6 14 -34 31 -33 58 -37 50 -9 -6
26 35 61 71 61 15 0 33 5 39 11 13 13 36 3 28 -12 -4 -5 1 -9 9 -9 9 0 16 7
16 16 0 10 6 14 14 11 8 -3 18 5 25 19 9 20 16 23 38 19 26 -5 27 -5 5 5 -18
8 -22 15 -17 32 4 13 16 30 27 39 15 12 18 22 12 45 -4 16 -4 26 0 23 4 -4 29
-118 57 -255z m-4451 236 c0 -5 -4 -10 -9 -10 -6 0 -13 5 -16 10 -3 6 1 10 9
10 9 0 16 -4 16 -10z m-376 -15 c-6 -16 -24 -21 -24 -7 0 11 11 22 21 22 5 0
6 -7 3 -15z m46 -9 c0 -11 -19 -15 -25 -6 -3 5 1 10 9 10 9 0 16 -2 16 -4z
m278 -19 c2 -10 -3 -17 -12 -17 -18 0 -29 16 -21 31 9 14 29 6 33 -14z m42 3
c0 -5 -4 -10 -9 -10 -6 0 -13 5 -16 10 -3 6 1 10 9 10 9 0 16 -4 16 -10z
m-1047 -30 c-3 -11 -10 -23 -16 -27 -7 -4 -8 0 -4 11 4 10 7 22 7 27 0 5 4 9
9 9 5 0 7 -9 4 -20z m1107 10 c0 -5 -5 -10 -11 -10 -5 0 -7 5 -4 10 3 6 8 10
11 10 2 0 4 -4 4 -10z m230 -10 c0 -5 -7 -7 -15 -4 -8 4 -12 10 -9 15 6 11 24
2 24 -11z m6110 -20 c11 0 20 -10 23 -30 5 -21 11 -28 22 -24 8 4 22 1 30 -6
8 -6 23 -9 34 -5 16 5 20 0 26 -35 4 -22 11 -42 16 -46 5 -3 7 -9 4 -14 -3 -5
4 -8 16 -7 22 2 44 39 40 70 -1 9 1 17 6 17 18 0 31 -17 42 -52 15 -46 28 -48
42 -8 19 53 63 33 57 -26 -3 -34 -1 -39 17 -36 11 2 30 16 42 30 l22 27 7 -33
c9 -42 49 -63 70 -35 43 60 43 61 44 27 0 -40 21 -49 50 -21 l23 21 21 -27
c26 -32 43 -24 48 23 3 39 38 58 38 21 0 -11 6 -26 13 -33 8 -7 12 -21 9 -32
-3 -11 -1 -17 5 -13 6 4 13 21 17 38 6 31 7 31 25 15 11 -10 17 -25 14 -37 -6
-20 11 -27 22 -9 3 6 16 10 28 10 16 0 18 -3 9 -12 -19 -19 -14 -28 13 -28 36
0 31 -16 -20 -66 -66 -64 -124 -78 -273 -67 -64 4 -158 6 -208 4 -120 -4 -140
6 -287 158 -133 137 -159 173 -151 211 10 44 16 56 21 43 3 -7 13 -13 23 -13z
m-5200 -42 c8 -2 10 -9 6 -16 -10 -17 -26 -15 -26 3 0 7 -6 18 -13 22 -8 4
-17 17 -21 27 -5 16 -2 14 17 -6 13 -14 29 -27 37 -30z m-1130 32 c0 -5 -7
-10 -15 -10 -8 0 -15 5 -15 10 0 6 7 10 15 10 8 0 15 -4 15 -10z m220 -5 c0
-8 -9 -15 -20 -15 -22 0 -27 15 -7 23 21 9 27 7 27 -8z m8000 -5 c-24 -15 -36
-11 -14 4 10 8 21 12 24 10 2 -3 -2 -9 -10 -14z m-3963 4 c-3 -3 -12 -4 -19
-1 -8 3 -5 6 6 6 11 1 17 -2 13 -5z m1943 -12 c0 -22 22 -72 33 -72 4 0 7 -3
7 -7 0 -5 63 -72 140 -151 173 -177 187 -184 338 -181 59 1 159 -1 223 -6 155
-10 247 10 311 67 68 62 88 74 98 58 4 -7 6 -19 3 -26 -2 -6 0 -15 6 -19 6 -3
11 -1 11 6 0 7 6 5 13 -6 8 -10 19 -15 25 -11 6 3 14 2 17 -4 5 -8 11 -8 20 0
9 7 16 6 25 -5 7 -8 19 -15 26 -15 10 0 11 -6 5 -22 -5 -13 -16 -22 -25 -22
-13 1 -14 -2 -4 -20 11 -18 13 -19 16 -3 2 9 8 17 13 17 6 0 7 -6 3 -12 -4 -7
1 -6 12 3 19 16 48 30 73 35 7 1 -13 -20 -45 -48 -73 -63 -254 -249 -297 -304
l-31 -41 -146 1 c-155 0 -236 -12 -385 -61 -139 -45 -221 -92 -365 -213 -116
-97 -166 -124 -298 -160 -126 -34 -124 -33 -276 -147 -173 -130 -234 -157
-468 -209 -110 -25 -202 -44 -203 -42 -1 2 3 35 8 73 10 68 4 145 -11 145 -4
0 -18 -20 -31 -45 -25 -48 -97 -135 -111 -135 -4 0 -10 10 -13 23 -74 346 -68
289 -92 879 -19 460 -19 441 3 429 9 -5 24 -12 33 -15 13 -3 18 -23 24 -85 7
-85 18 -101 57 -80 11 6 26 8 33 5 8 -3 16 -2 19 2 8 14 97 6 106 -9 8 -12 12
-10 24 7 24 33 65 40 84 13 l15 -22 11 22 c11 19 14 20 33 6 11 -8 26 -35 32
-60 19 -76 31 -42 31 90 0 162 24 259 49 193 6 -16 10 -18 16 -8 5 8 2 16 -9
22 -31 17 -16 28 19 14 l35 -15 -16 24 c-21 32 -9 52 17 29 17 -16 19 -16 19
-1 0 10 6 17 14 17 20 0 29 -30 11 -36 -8 -4 -15 -10 -15 -15 0 -14 28 -11 33
4 3 9 9 8 23 -4 10 -9 25 -14 32 -12 7 3 10 -1 6 -11 -4 -10 0 -18 10 -22 23
-9 32 2 17 20 -13 16 -7 36 10 36 6 0 8 -8 4 -19 -4 -12 0 -21 11 -25 21 -8
25 -4 27 23 2 27 14 27 23 -1 6 -21 7 -21 20 -3 14 18 14 18 14 -2 0 -11 7
-23 15 -27 10 -4 15 1 15 15 0 16 5 20 20 16 13 -3 20 0 20 9 0 16 75 20 85 4
3 -5 1 -10 -6 -10 -10 0 -10 -3 0 -12 11 -10 14 -10 18 0 3 6 11 12 18 12 7 0
16 -6 18 -12 3 -8 6 -6 6 5 1 9 5 17 10 17 5 0 7 -9 4 -20 -3 -11 0 -20 6 -20
6 0 11 5 11 12 0 6 6 3 14 -8 14 -18 15 -18 21 -2 5 13 11 15 25 8 13 -7 20
-6 24 5 3 8 1 15 -4 15 -6 0 -10 5 -10 10 0 6 5 10 11 10 6 0 19 10 29 22 l17
22 7 -22 c8 -23 21 -29 30 -13 10 16 -5 41 -25 41 -10 0 -19 5 -19 11 0 6 9 9
19 6 12 -3 27 3 37 14 10 11 23 18 30 15 6 -2 11 3 10 12 0 9 5 16 12 15 6 -2
12 6 12 17 0 11 5 20 10 20 6 0 10 -8 10 -18z m1966 -17 c-11 -8 -25 -15 -30
-15 -6 1 0 7 14 15 32 19 40 18 16 0z m-3926 -5 c0 -5 -7 -10 -15 -10 -8 0
-15 5 -15 10 0 6 7 10 15 10 8 0 15 -4 15 -10z m-5423 -12 c-2 -7 5 -23 16
-35 11 -13 16 -23 11 -23 -18 0 -55 58 -41 63 19 8 19 8 14 -5z m1178 -8 c3
-5 2 -10 -4 -10 -5 0 -13 5 -16 10 -3 6 -2 10 4 10 5 0 13 -4 16 -10z m731
-15 c-3 -10 1 -15 12 -16 12 0 13 -2 3 -6 -11 -5 -11 -7 0 -14 8 -5 14 -21 14
-36 0 -17 5 -27 12 -26 7 2 10 -4 7 -12 -5 -11 1 -15 20 -15 27 0 36 -15 14
-23 -19 -6 6 -33 43 -46 23 -8 29 -7 29 4 0 7 -8 16 -17 18 -15 4 -15 6 5 12
24 8 30 31 10 38 -7 2 -9 8 -5 13 9 9 42 -8 42 -22 0 -5 10 -23 22 -39 14 -21
19 -39 16 -58 -4 -23 1 -34 27 -57 19 -17 35 -28 38 -25 9 8 -9 56 -28 75 -16
16 -17 20 -5 20 8 0 15 -4 15 -9 0 -5 9 -12 19 -16 11 -3 23 -15 26 -25 3 -10
15 -22 26 -25 10 -4 19 -15 19 -26 0 -32 17 -21 18 12 0 18 -5 32 -14 36 -18
7 -18 33 0 33 8 0 21 12 28 28 8 15 20 38 28 52 7 14 16 31 20 39 6 15 -6 58
-27 97 -22 38 14 48 46 13 18 -19 22 -20 40 -7 12 8 18 19 13 24 -4 4 0 3 9
-4 66 -50 201 -513 203 -697 1 -89 2 -91 31 -111 34 -22 97 -137 93 -168 -2
-12 -17 -27 -35 -36 -42 -19 -41 -33 3 -49 l36 -13 -22 -23 c-13 -13 -42 -33
-66 -45 -24 -11 -44 -25 -44 -31 0 -9 48 -33 104 -53 17 -6 15 -12 -25 -52
-49 -51 -96 -78 -151 -88 -21 -4 -38 -11 -38 -16 0 -14 79 -32 127 -28 24 2
43 1 43 -2 0 -13 -100 -101 -153 -134 -32 -21 -55 -41 -52 -46 3 -5 33 -15 65
-22 34 -7 60 -17 60 -24 0 -7 -5 -35 -12 -62 l-11 -50 -111 58 c-139 73 -179
106 -216 181 -17 32 -35 59 -40 59 -6 0 -10 -20 -10 -45 0 -25 -4 -45 -10 -45
-34 0 -350 231 -534 391 -20 17 62 561 136 899 25 119 68 251 79 245 4 -3 10
-1 14 5 10 15 18 12 11 -5z m504 5 c0 -5 -5 -10 -11 -10 -5 0 -7 5 -4 10 3 6
8 10 11 10 2 0 4 -4 4 -10z m-350 -30 c0 -5 -5 -10 -11 -10 -5 0 -7 5 -4 10 3
6 8 10 11 10 2 0 4 -4 4 -10z m7110 -34 c-19 -13 -37 -22 -39 -20 -5 4 22 30
39 37 33 12 33 6 0 -17z m-2450 -6 c0 -5 -7 -10 -16 -10 -8 0 -12 5 -9 10 3 6
10 10 16 10 5 0 9 -4 9 -10z m442 -32 c-9 -9 -12 -7 -12 12 0 19 3 21 12 12 9
-9 9 -15 0 -24z m1944 -4 c-11 -7 -22 -12 -25 -9 -2 3 4 12 15 19 10 8 21 12
24 9 3 -2 -4 -11 -14 -19z m-36 -18 c0 -3 -4 -8 -10 -11 -5 -3 -10 -1 -10 4 0
6 5 11 10 11 6 0 10 -2 10 -4z m-630 -25 c0 -6 -4 -13 -10 -16 -5 -3 -10 1
-10 9 0 9 5 16 10 16 6 0 10 -4 10 -9z m-8061 -82 c14 -66 14 -69 -8 -69 -14
0 -21 12 -30 56 -6 31 -8 60 -6 65 13 20 34 -6 44 -52z m5994 -32 c5 -34 3
-39 -20 -48 -17 -6 -30 -6 -36 0 -13 13 0 44 15 36 7 -4 5 0 -4 8 -19 15 -24
47 -8 47 6 0 10 8 10 18 0 59 32 14 43 -61z m2627 90 c0 -2 -10 -12 -22 -23
l-23 -19 19 23 c18 21 26 27 26 19z m-2554 -73 c-10 -25 -24 -15 -28 21 -2 20
-2 38 1 41 9 8 33 -47 27 -62z m-283 39 c8 -10 17 -41 19 -72 3 -53 2 -54 -27
-62 -41 -12 -50 1 -48 73 3 74 23 97 56 61z m112 -44 c8 -65 0 -83 -31 -77
-16 3 -20 14 -22 65 -3 62 -2 65 40 72 3 0 9 -26 13 -60z m-6005 -40 c0 -30
-16 -47 -31 -32 -15 15 -20 95 -7 110 9 12 14 8 25 -18 7 -17 13 -44 13 -60z
m8680 83 c0 -8 -85 -72 -96 -72 -5 0 87 78 94 79 1 1 2 -3 2 -7z m-370 -12 c0
-5 -5 -10 -11 -10 -5 0 -7 5 -4 10 3 6 8 10 11 10 2 0 4 -4 4 -10z m-8410 -35
c0 -9 6 -18 14 -21 10 -4 19 -64 9 -64 -2 0 -14 23 -28 50 -20 40 -22 50 -10
50 8 0 15 -7 15 -15z m8673 -32 c2 -5 -9 -18 -24 -31 -16 -13 -29 -19 -29 -13
0 6 5 11 11 11 5 0 7 5 4 10 -3 6 1 10 10 10 9 0 13 5 10 10 -3 6 -2 10 4 10
5 0 12 -3 14 -7z m-4439 -1279 c25 -10 19 -22 -9 -16 -14 2 -22 8 -19 13 6 11
8 11 28 3z m-1229 -19 c42 -17 53 -39 31 -60 -10 -11 -16 -34 -16 -68 0 -102
7 -97 -151 -97 l-139 0 -6 28 c-3 15 -10 38 -16 52 -34 83 -37 99 -22 115 9 8
20 12 26 9 7 -4 8 -2 4 4 -13 21 31 31 142 32 77 0 124 -5 147 -15z m348 -3
c3 -4 3 -19 0 -35 l-5 -27 -113 0 c-119 0 -125 -2 -125 -51 0 -18 8 -19 110
-19 l110 0 0 -41 c0 -41 0 -41 -31 -35 -17 3 -43 6 -58 7 l-26 1 30 13 c23 11
26 14 10 15 -17 0 -17 2 -5 10 10 7 -5 9 -50 9 -51 -1 -58 -3 -35 -9 l30 -8
-35 -2 c-19 -1 -29 -4 -22 -7 6 -2 10 -9 6 -14 -3 -5 5 -9 18 -10 21 -1 21 -1
-5 -11 -48 -17 -57 -6 -57 70 0 82 15 130 44 142 26 11 203 13 209 2z m277
-11 c0 -47 -8 -51 -99 -51 -115 0 -128 -5 -133 -43 -3 -31 -3 -32 42 -35 49
-3 80 -21 40 -23 l-25 -1 25 -8 25 -8 -25 -1 c-15 -1 -31 4 -38 11 -9 9 -12 8
-12 -5 0 -22 -14 -22 -35 0 -13 13 -16 28 -12 67 10 100 31 115 160 116 79 0
87 -2 87 -19z m329 10 c11 -7 13 -27 8 -98 -10 -145 3 -133 -154 -133 l-135 0
5 33 c3 17 3 26 0 19 -11 -28 -23 3 -22 61 1 90 9 111 44 117 54 10 240 11
254 1z m601 -10 c0 -5 -9 -7 -20 -4 -11 3 -20 7 -20 9 0 2 9 4 20 4 11 0 20
-4 20 -9z m-300 -22 c0 -15 -5 -19 -17 -15 -10 3 -52 8 -93 12 -41 3 -78 8
-82 11 -4 2 -17 -1 -28 -7 -16 -9 -20 -8 -20 5 0 13 19 15 120 15 115 0 120
-1 120 -21z m265 -9 c4 -6 -6 -10 -22 -10 -15 0 -35 -5 -43 -10 -11 -7 -5 -8
19 -3 25 4 32 3 27 -5 -13 -21 -210 -9 -203 12 2 6 40 13 88 17 46 3 94 6 106
7 12 1 25 -2 28 -8z m22 -22 c-3 -7 -5 -2 -5 12 0 14 2 19 5 13 2 -7 2 -19 0
-25z m-337 2 c22 -14 11 -16 -70 -11 -58 3 -68 6 -45 11 44 11 98 11 115 0z
m580 -35 c20 -25 4 -29 -21 -6 -18 16 -19 21 -7 21 9 0 21 -7 28 -15z m-583
-17 c-3 -8 -6 -5 -6 6 -1 11 2 17 5 13 3 -3 4 -12 1 -19z m503 2 c17 -6 9 -7
-25 -3 -27 3 -52 7 -54 9 -8 7 54 2 79 -6z m-1090 -64 c0 -31 -3 -34 -35 -40
-41 -8 -87 10 -64 25 12 8 12 11 -1 19 -23 15 5 30 58 30 41 0 42 -1 42 -34z
m425 24 c-3 -5 -12 -10 -18 -10 -7 0 -6 4 3 10 19 12 23 12 15 0z m128 3 c-7
-2 -21 -2 -30 0 -10 3 -4 5 12 5 17 0 24 -2 18 -5z m84 -25 c-3 -8 -6 -5 -6 6
-1 11 2 17 5 13 3 -3 4 -12 1 -19z m533 12 c0 -5 -4 -10 -10 -10 -5 0 -10 5
-10 10 0 6 5 10 10 10 6 0 10 -4 10 -10z m-270 -14 c0 -3 -4 -8 -10 -11 -5 -3
-10 -1 -10 4 0 6 5 11 10 11 6 0 10 -2 10 -4z m-270 -30 c0 -11 -19 -15 -25
-6 -3 5 1 10 9 10 9 0 16 -2 16 -4z m-3956 -901 c47 -35 115 -87 150 -116 l65
-52 6 -63 c15 -140 -26 -264 -119 -360 -67 -69 -89 -74 -169 -36 -35 17 -91
39 -125 48 -44 12 -62 22 -62 34 0 9 20 76 45 150 54 161 102 335 111 408 4
28 8 52 10 52 1 0 41 -29 88 -65z m6874 -352 c-1 -5 -21 -46 -44 -93 -23 -47
-49 -109 -59 -139 -17 -52 -18 -53 -49 -47 -96 20 -140 18 -176 -6 -56 -37
-78 -95 -92 -241 -14 -149 7 -142 -178 -57 -145 67 -207 90 -307 115 -40 11
-73 22 -73 25 0 3 71 21 158 38 208 43 260 69 427 212 145 124 190 154 273
181 58 18 126 25 120 12z m-4670 -93 c17 -7 32 -16 32 -20 0 -4 -15 -11 -32
-14 -43 -8 -138 -52 -138 -64 0 -5 28 -12 63 -15 34 -3 95 -14 135 -23 62 -15
72 -21 72 -40 0 -18 7 -22 53 -28 28 -3 69 -6 91 -6 32 0 37 -3 31 -17 -28
-67 -55 -161 -66 -229 -7 -43 -17 -84 -23 -90 -6 -6 -47 -23 -91 -38 -129 -45
-242 -102 -321 -162 -80 -61 -127 -79 -236 -89 -82 -8 -325 -55 -468 -90 -113
-28 -238 -50 -374 -65 -111 -12 -283 5 -425 41 -92 23 -118 41 -153 105 -42
77 -58 158 -58 296 0 236 60 352 222 428 115 55 220 49 429 -22 l123 -41 115
11 c72 8 156 24 221 44 95 28 118 32 241 32 l136 1 70 48 c38 26 83 52 99 57
38 12 210 5 252 -10z m-3337 -567 c-26 -92 -7 -263 39 -352 16 -33 17 -41 5
-51 -16 -13 -45 -94 -45 -127 0 -35 -14 -28 -66 35 -26 31 -73 83 -103 115
l-56 58 0 108 c0 105 1 111 30 152 17 24 48 56 70 71 39 27 127 51 133 37 2
-4 -1 -25 -7 -46z m140 -491 c65 -80 127 -179 140 -222 13 -44 3 -71 -38 -97
l-26 -17 -61 65 c-34 37 -74 90 -90 119 -24 44 -28 60 -23 104 6 57 25 106 41
106 6 0 32 -26 57 -58z m-161 -142 c62 -64 178 -218 186 -247 14 -53 -74 -149
-129 -141 -37 5 -187 227 -187 276 0 61 44 162 71 162 6 0 32 -22 59 -50z
m-250 -70 c46 -25 260 -382 260 -434 0 -39 -135 -156 -180 -156 -39 0 -69 39
-133 169 -50 102 -52 109 -51 186 0 88 23 179 55 219 23 29 24 30 49 16z
m8141 -161 c13 -25 23 -70 26 -113 6 -77 -4 -111 -87 -292 -33 -72 -42 -83
-73 -93 -41 -14 -77 -7 -106 20 -27 26 -27 59 4 150 24 71 130 300 161 347 23
35 51 28 75 -19z m-8514 -24 c11 -3 68 -54 125 -113 80 -83 115 -129 156 -204
30 -54 56 -116 59 -138 5 -35 2 -43 -24 -67 -54 -50 -281 -126 -308 -103 -17
14 -67 142 -89 225 -24 97 -40 294 -27 343 12 43 45 75 71 68 8 -3 25 -7 37
-11z m8711 -120 c41 -100 40 -144 -6 -274 -47 -131 -67 -158 -128 -167 -85
-12 -124 24 -109 102 18 99 181 410 209 401 6 -2 22 -30 34 -62z m-9097 31
c48 -33 180 -207 235 -310 49 -92 94 -212 94 -250 0 -16 -11 -32 -29 -45 -37
-27 -255 -100 -319 -108 -46 -5 -47 -5 -68 33 -63 113 -100 292 -91 439 8 124
28 195 68 234 37 37 63 39 110 7z m9895 -3 c30 -33 58 -121 75 -240 l13 -92
-34 -102 c-18 -56 -43 -113 -56 -128 -21 -24 -28 -26 -101 -25 -78 1 -157 17
-180 36 -37 30 5 205 92 379 54 108 78 146 114 176 34 29 47 29 77 -4z m-537
-65 c46 -92 45 -140 -3 -288 -21 -63 -47 -125 -58 -137 -49 -53 -135 -50 -178
5 -24 30 -22 65 11 171 38 120 151 324 177 319 9 -2 32 -33 51 -70z m234 25
c39 -99 42 -165 12 -258 -7 -22 -27 -86 -45 -142 l-31 -103 -34 0 c-19 0 -53
7 -75 16 -49 20 -57 45 -40 123 12 55 85 252 114 309 19 36 65 92 76 92 4 0
15 -17 23 -37z m749 0 c42 -47 88 -239 88 -360 -1 -91 -29 -175 -70 -205 -26
-19 -28 -18 -162 3 -133 21 -137 23 -149 51 -43 103 65 354 209 485 53 48 62
51 84 26z m-10839 -86 c71 -30 203 -200 267 -344 89 -200 96 -240 52 -271 -60
-43 -243 -84 -305 -68 -49 12 -95 163 -117 383 -14 146 1 247 43 301 12 15 20
15 60 -1z m11176 -25 c5 -15 13 -48 17 -74 4 -33 11 -48 21 -48 13 0 13 -3 2
-16 -7 -8 -14 -48 -16 -89 -3 -65 -1 -75 16 -84 28 -15 37 3 45 87 5 51 4 78
-5 88 -9 11 -7 14 11 14 13 0 42 18 66 40 51 47 70 50 86 13 26 -66 8 -313
-30 -393 -16 -32 -21 -35 -67 -38 -84 -5 -100 23 -83 142 2 11 -5 21 -20 27
-25 9 -24 10 -41 -57 -25 -94 -86 -139 -133 -97 -51 44 -80 172 -58 253 17 65
87 205 120 240 32 34 53 32 69 -8z m1256 -95 c4 -30 5 -122 3 -206 -3 -146 -4
-154 -27 -172 -32 -26 -100 -26 -129 1 -20 19 -22 30 -22 143 0 67 5 140 10
162 12 53 86 125 129 125 28 0 30 -2 36 -53z m-525 29 c11 -14 19 -52 36 -174
4 -24 2 -53 -4 -65 -6 -12 -13 -49 -17 -81 -7 -75 -23 -109 -54 -116 -38 -9
-131 5 -142 21 -6 8 -8 51 -5 103 5 78 4 87 -10 82 -9 -3 -24 -6 -34 -6 -14 0
-20 -11 -25 -52 -11 -84 -30 -113 -85 -137 -58 -25 -88 -27 -97 -6 -3 9 0 58
6 109 16 126 16 173 0 193 -12 14 -15 8 -20 -48 l-6 -64 -1 78 c-1 46 2 77 8
77 6 0 10 -4 10 -8 0 -5 6 -17 14 -27 13 -18 15 -17 29 16 16 39 82 99 109 99
17 0 31 -37 40 -100 2 -16 9 -24 18 -22 12 3 13 1 3 -9 -21 -21 -15 -39 12
-39 26 0 35 24 13 34 -7 3 -4 4 7 1 16 -4 24 4 38 40 34 82 124 140 157 101z
m271 -22 c14 -17 18 -282 4 -343 -8 -38 -39 -56 -111 -65 -74 -9 -77 -3 -73
152 4 121 6 131 32 170 28 42 99 102 122 102 7 0 18 -7 26 -16z m36 -176 c-2
-24 -4 -7 -4 37 0 44 2 63 4 43 2 -21 2 -57 0 -80z"/>
<path d="M6637 9413 c-4 -3 -7 -11 -7 -17 0 -6 5 -5 12 2 6 6 9 14 7 17 -3 3
-9 2 -12 -2z"/>
<path d="M6801 9092 c-1 -20 18 -52 31 -52 7 0 5 7 -4 18 -9 9 -18 24 -21 32
-4 10 -6 11 -6 2z"/>
<path d="M6803 8932 c-17 -15 -72 -51 -122 -81 -65 -39 -133 -95 -239 -195
-222 -211 -251 -226 -330 -174 -75 50 -106 170 -68 261 23 56 8 44 -19 -15
-15 -32 -25 -71 -25 -99 0 -47 25 -147 41 -163 5 -6 9 -15 9 -20 0 -6 -5 -4
-10 4 -18 28 -11 -9 9 -48 62 -119 222 -229 386 -265 84 -18 223 -31 185 -17
-14 5 -52 15 -85 22 l-60 13 105 5 c78 4 122 11 169 29 66 26 70 40 6 22 -20
-5 -33 -6 -30 0 4 5 11 9 16 9 16 0 173 72 189 87 8 7 15 19 15 26 1 6 11 32
22 57 76 161 83 366 15 444 -16 18 -16 19 2 12 22 -8 136 3 136 14 0 13 -148
80 -200 90 -74 14 -81 13 -117 -18z m85 -244 c7 -7 12 -36 12 -77 0 -117 -63
-212 -179 -268 -99 -49 -314 -41 -390 15 -35 25 -36 38 -7 57 24 16 28 15 93
-12 58 -24 81 -28 163 -28 82 0 100 3 133 23 20 13 49 44 63 68 23 40 26 53
22 108 -3 34 -13 76 -22 93 -15 31 -15 32 7 36 30 6 89 -2 105 -15z m119 -10
c-3 -8 -6 -5 -6 6 -1 11 2 17 5 13 3 -3 4 -12 1 -19z"/>
<path d="M5640 8768 c0 -2 23 -21 50 -42 114 -87 130 -193 46 -293 -43 -51
-71 -46 -264 51 -177 89 -372 176 -461 207 -72 25 -109 24 -151 -4 -19 -13
-56 -32 -83 -42 -26 -10 -46 -19 -44 -21 2 -2 33 -4 70 -5 37 -1 67 -3 67 -6
0 -2 -7 -17 -14 -32 -14 -26 -13 -31 8 -62 13 -19 40 -77 61 -129 40 -100 86
-195 107 -220 24 -27 86 -70 135 -91 64 -28 207 -36 283 -15 30 8 57 13 59 11
7 -8 -106 -35 -163 -39 -32 -3 -61 -8 -65 -12 -10 -11 129 4 184 19 101 29
166 47 172 47 4 0 -12 -14 -35 -32 -44 -34 -49 -48 -10 -28 95 50 186 151 219
244 10 30 30 71 44 92 17 25 25 50 25 78 0 57 -25 149 -52 189 -22 34 -188
153 -188 135z m185 -335 c-11 -45 -22 -22 -14 29 5 28 6 55 3 60 -3 5 -2 17 2
26 10 21 18 -80 9 -115z m-722 61 l46 -7 -6 -46 c-8 -73 11 -124 64 -170 25
-23 64 -46 87 -52 80 -22 176 9 234 75 17 20 36 36 42 36 18 0 70 -30 70 -40
0 -5 -28 -30 -62 -55 -87 -63 -174 -89 -281 -83 -89 5 -140 25 -200 78 -39 34
-84 127 -93 193 -11 78 -2 85 99 71z m-148 -105 c9 -29 27 -75 41 -102 13 -28
22 -53 19 -55 -6 -7 -85 177 -85 198 0 22 9 7 25 -41z"/>
<path d="M5985 8148 c2 -13 10 -52 16 -88 14 -81 28 -109 81 -155 35 -30 38
-35 18 -29 -22 6 -23 5 -11 -10 10 -12 22 -15 45 -10 40 8 47 20 39 69 -9 66
-37 117 -98 183 -59 64 -100 82 -90 40z"/>
<path d="M5892 8048 c-45 -94 -55 -127 -43 -147 14 -22 44 -4 79 48 28 41 34
58 35 112 2 52 -1 64 -15 67 -13 2 -27 -18 -56 -80z"/>
<path d="M5198 8043 c7 -3 16 -2 19 1 4 3 -2 6 -13 5 -11 0 -14 -3 -6 -6z"/>
<path d="M5238 8033 c6 -2 18 -2 25 0 6 3 1 5 -13 5 -14 0 -19 -2 -12 -5z"/>
<path d="M6628 7944 c36 -25 29 -65 -19 -109 -55 -50 -123 -78 -271 -114 -271
-65 -424 -84 -653 -79 -174 3 -182 4 -225 29 -25 15 -54 36 -64 48 -21 23 -51
28 -62 9 -4 -6 -1 -16 7 -22 8 -6 29 -35 48 -63 84 -132 227 -188 481 -186
219 1 520 55 622 110 58 32 130 101 160 154 12 21 25 39 29 39 12 0 29 60 29
102 0 30 -7 46 -29 69 -16 16 -40 29 -52 29 l-23 0 22 -16z m-52 -211 c-8 -16
-22 -37 -31 -48 l-17 -20 7 20 c4 11 8 27 9 35 3 24 16 40 32 40 13 0 13 -3 0
-27z m-56 -38 c0 -13 -13 -38 -30 -56 -24 -26 -30 -30 -35 -17 -13 34 -1 82
24 95 30 15 41 9 41 -22z m-92 -51 l3 -51 -52 -21 c-28 -12 -56 -22 -60 -22
-11 0 -12 101 -1 116 8 12 70 33 92 30 11 -1 16 -16 18 -52z m-145 14 c2 -7 4
-38 3 -68 -1 -60 3 -57 -113 -75 l-43 -6 0 69 0 68 63 11 c34 5 67 11 73 11 7
1 14 -4 17 -10z m-175 -85 c3 -72 3 -72 -103 -76 l-60 -2 -17 54 c-10 30 -15
57 -12 60 6 7 151 29 174 27 11 -1 16 -17 18 -63z m-628 37 c0 -5 -4 -10 -10
-10 -5 0 -10 5 -10 10 0 6 5 10 10 10 6 0 10 -4 10 -10z m105 -3 c9 -10 43
-97 38 -97 -14 0 -74 43 -88 63 -25 36 -19 50 17 43 17 -3 32 -7 33 -9z m134
-19 c20 -54 30 -92 26 -96 -2 -2 -20 -1 -39 2 -36 7 -66 38 -86 90 -9 26 -9
26 40 26 43 0 52 -3 59 -22z m177 -13 c7 -19 14 -46 14 -60 0 -24 -2 -25 -64
-25 -70 0 -71 1 -95 88 l-10 32 70 0 70 0 15 -35z"/>
<path d="M5897 7880 c-19 -16 -41 -30 -48 -30 -10 -1 -8 -5 5 -15 31 -23 106
17 106 57 0 27 -25 22 -63 -12z"/>
<path d="M6037 7839 c4 -13 8 -18 11 -10 2 7 -1 18 -6 23 -8 8 -9 4 -5 -13z"/>
<path d="M6309 7426 c-2 -3 -72 -12 -155 -20 -142 -15 -230 -34 -264 -56 -11
-7 -6 -10 22 -10 20 0 40 -4 43 -10 4 -6 -5 -10 -21 -10 -15 0 -25 -3 -21 -6
3 -3 77 -2 164 2 87 4 152 9 146 11 -20 7 -15 23 7 23 11 0 39 18 62 40 24 22
38 40 32 40 -6 0 -13 -2 -15 -4z"/>
<path d="M11165 8360 c-3 -5 -2 -10 4 -10 5 0 13 5 16 10 3 6 2 10 -4 10 -5 0
-13 -4 -16 -10z"/>
<path d="M11080 8230 c0 -5 5 -10 10 -10 6 0 10 5 10 10 0 6 -4 10 -10 10 -5
0 -10 -4 -10 -10z"/>
<path d="M10855 8330 c-3 -5 -1 -10 4 -10 6 0 11 5 11 10 0 6 -2 10 -4 10 -3
0 -8 -4 -11 -10z"/>
<path d="M10898 8282 c-19 -4 -25 -37 -8 -47 6 -3 10 -17 10 -31 0 -32 22 -55
41 -43 10 6 10 9 2 9 -9 0 -13 16 -13 48 0 54 -8 69 -32 64z"/>
<path d="M10965 8211 c-3 -5 -1 -12 5 -16 5 -3 10 1 10 9 0 18 -6 21 -15 7z"/>
<path d="M11392 7924 c1 -9 9 -19 16 -22 9 -3 13 2 10 14 -1 9 -9 19 -16 22
-9 3 -13 -2 -10 -14z"/>
<path d="M11285 7759 c-4 -6 -5 -12 -2 -15 2 -3 7 2 10 11 7 17 1 20 -8 4z"/>
<path d="M11240 7730 c-13 -8 -12 -10 3 -10 9 0 17 5 17 10 0 12 -1 12 -20 0z"/>
<path d="M10997 7723 c-11 -10 -8 -20 7 -26 10 -4 12 0 9 14 -6 21 -7 22 -16
12z"/>
<path d="M11170 7670 c0 -5 5 -10 10 -10 6 0 10 5 10 10 0 6 -4 10 -10 10 -5
0 -10 -4 -10 -10z"/>
<path d="M11150 7630 c0 -5 5 -10 10 -10 6 0 10 5 10 10 0 6 -4 10 -10 10 -5
0 -10 -4 -10 -10z"/>
<path d="M2330 7449 c0 -5 5 -7 10 -4 6 3 10 8 10 11 0 2 -4 4 -10 4 -5 0 -10
-5 -10 -11z"/>
<path d="M2375 7439 c-11 -17 1 -21 15 -4 8 9 8 15 2 15 -6 0 -14 -5 -17 -11z"/>
<path d="M2300 7335 c0 -8 7 -15 15 -15 8 0 15 4 15 9 0 5 -7 11 -15 15 -9 3
-15 0 -15 -9z"/>
<path d="M2346 7285 c4 -8 8 -15 10 -15 2 0 4 7 4 15 0 8 -4 15 -10 15 -5 0
-7 -7 -4 -15z"/>
<path d="M2825 7220 c3 -5 8 -10 11 -10 2 0 4 5 4 10 0 6 -5 10 -11 10 -5 0
-7 -4 -4 -10z"/>
<path d="M2475 7180 c-3 -5 -1 -10 4 -10 6 0 11 5 11 10 0 6 -2 10 -4 10 -3 0
-8 -4 -11 -10z"/>
<path d="M2260 7140 c0 -5 5 -10 10 -10 6 0 10 5 10 10 0 6 -4 10 -10 10 -5 0
-10 -4 -10 -10z"/>
<path d="M2365 7140 c3 -5 10 -10 16 -10 5 0 9 5 9 10 0 6 -7 10 -16 10 -8 0
-12 -4 -9 -10z"/>
<path d="M2436 7124 c-4 -10 -1 -14 6 -12 15 5 23 28 10 28 -5 0 -13 -7 -16
-16z"/>
<path d="M2490 7130 c0 -5 5 -10 10 -10 6 0 10 5 10 10 0 6 -4 10 -10 10 -5 0
-10 -4 -10 -10z"/>
<path d="M2507 7113 c-8 -7 11 -33 23 -33 5 0 6 9 3 20 -5 20 -15 25 -26 13z"/>
<path d="M2311 7094 c0 -11 3 -14 6 -6 3 7 2 16 -1 19 -3 4 -6 -2 -5 -13z"/>
<path d="M2192 7088 c-14 -14 -16 -28 -3 -28 5 0 11 9 14 20 6 23 5 24 -11 8z"/>
<path d="M2230 7081 c0 -12 5 -21 10 -21 6 0 10 6 10 14 0 8 -4 18 -10 21 -5
3 -10 -3 -10 -14z"/>
<path d="M2470 7089 c0 -5 5 -7 10 -4 6 3 10 8 10 11 0 2 -4 4 -10 4 -5 0 -10
-5 -10 -11z"/>
<path d="M2530 7050 c0 -5 5 -10 10 -10 6 0 10 5 10 10 0 6 -4 10 -10 10 -5 0
-10 -4 -10 -10z"/>
<path d="M2950 6930 c0 -5 5 -10 10 -10 6 0 10 5 10 10 0 6 -4 10 -10 10 -5 0
-10 -4 -10 -10z"/>
<path d="M2826 6783 c-11 -11 -6 -23 9 -23 8 0 15 4 15 9 0 13 -16 22 -24 14z"/>
<path d="M1971 6587 c12 -9 14 -16 5 -29 -13 -22 -1 -35 19 -18 19 16 20 6 0
-14 -23 -23 -3 -27 25 -5 l25 19 -33 30 c-18 17 -38 30 -45 30 -8 -1 -6 -5 4
-13z"/>
<path d="M3165 6570 c-3 -5 -1 -10 4 -10 6 0 11 5 11 10 0 6 -2 10 -4 10 -3 0
-8 -4 -11 -10z"/>
<path d="M1750 6551 c0 -24 13 -38 30 -34 17 5 17 6 -1 24 -21 21 -29 24 -29
10z"/>
<path d="M2910 6524 c0 -8 5 -12 10 -9 6 3 10 10 10 16 0 5 -4 9 -10 9 -5 0
-10 -7 -10 -16z"/>
<path d="M3167 6533 c-12 -22 5 -73 25 -73 7 0 7 5 -1 14 -9 11 -9 15 0 18 7
2 9 12 5 26 -7 22 -21 29 -29 15z"/>
<path d="M2970 6510 c0 -5 5 -10 10 -10 6 0 10 5 10 10 0 6 -4 10 -10 10 -5 0
-10 -4 -10 -10z"/>
<path d="M3026 6442 c-3 -6 -1 -14 5 -17 14 -9 20 -2 10 14 -6 8 -11 9 -15 3z"/>
<path d="M3143 6433 c-16 -6 -17 -33 -1 -33 6 0 8 3 5 7 -4 3 -2 12 4 20 12
14 11 14 -8 6z"/>
<path d="M1734 6386 c-4 -11 0 -24 10 -34 15 -15 16 -15 16 3 0 11 -4 27 -10
35 -8 12 -10 12 -16 -4z"/>
<path d="M1600 6350 c0 -5 5 -10 10 -10 6 0 10 5 10 10 0 6 -4 10 -10 10 -5 0
-10 -4 -10 -10z"/>
<path d="M3116 6261 c-4 -7 -5 -15 -2 -18 9 -9 19 4 14 18 -4 11 -6 11 -12 0z"/>
<path d="M3170 6181 c0 -5 -9 -11 -20 -14 -14 -4 -19 -12 -17 -35 2 -35 17
-32 17 4 0 19 5 24 25 24 16 0 25 6 25 15 0 8 -7 15 -15 15 -8 0 -15 -4 -15
-9z"/>
<path d="M3080 6085 c0 -8 5 -15 10 -15 6 0 10 7 10 15 0 8 -4 15 -10 15 -5 0
-10 -7 -10 -15z"/>
<path d="M3077 6033 c-12 -11 -8 -23 8 -23 8 0 15 7 15 15 0 16 -12 20 -23 8z"/>
<path d="M2825 6290 c-3 -5 -1 -10 4 -10 6 0 11 5 11 10 0 6 -2 10 -4 10 -3 0
-8 -4 -11 -10z"/>
<path d="M2800 5809 c0 -5 5 -7 10 -4 6 3 10 8 10 11 0 2 -4 4 -10 4 -5 0 -10
-5 -10 -11z"/>
<path d="M2670 5769 c0 -6 -9 -8 -20 -4 -14 4 -20 2 -20 -8 0 -13 6 -13 35 -4
35 10 48 27 20 27 -8 0 -15 -5 -15 -11z"/>
<path d="M3690 5509 c0 -5 5 -7 10 -4 6 3 10 8 10 11 0 2 -4 4 -10 4 -5 0 -10
-5 -10 -11z"/>
<path d="M3400 5489 c0 -5 5 -7 10 -4 6 3 10 8 10 11 0 2 -4 4 -10 4 -5 0 -10
-5 -10 -11z"/>
<path d="M3620 5480 c0 -5 5 -10 10 -10 6 0 10 5 10 10 0 6 -4 10 -10 10 -5 0
-10 -4 -10 -10z"/>
<path d="M3450 5460 c-13 -9 -13 -10 0 -10 13 0 13 -1 0 -10 -10 -7 -11 -10
-2 -10 12 0 28 27 20 35 -2 2 -10 0 -18 -5z"/>
<path d="M8330 5581 c0 -5 7 -12 16 -15 22 -9 24 -8 24 9 0 8 -9 15 -20 15
-11 0 -20 -4 -20 -9z"/>
<path d="M7786 5534 c-3 -9 -2 -12 5 -8 6 3 19 -3 30 -15 26 -28 39 -27 39 3
0 20 -4 24 -25 21 -14 -1 -25 2 -25 6 0 15 -18 10 -24 -7z"/>
<path d="M7665 5490 c-3 -5 1 -10 10 -10 9 0 13 5 10 10 -3 6 -8 10 -10 10 -2
0 -7 -4 -10 -10z"/>
<path d="M7490 5460 c0 -5 5 -10 10 -10 6 0 10 5 10 10 0 6 -4 10 -10 10 -5 0
-10 -4 -10 -10z"/>
<path d="M7394 5256 c-7 -19 3 -36 21 -36 22 0 23 14 3 33 -16 15 -19 15 -24
3z"/>
<path d="M7460 5255 c0 -8 7 -15 15 -15 9 0 12 6 9 15 -4 8 -10 15 -15 15 -5
0 -9 -7 -9 -15z"/>
<path d="M7310 5185 c-10 -13 -9 -15 8 -15 15 0 20 5 16 15 -4 8 -7 15 -9 15
-1 0 -8 -7 -15 -15z"/>
<path d="M9920 5530 c0 -5 5 -10 10 -10 6 0 10 5 10 10 0 6 -4 10 -10 10 -5 0
-10 -4 -10 -10z"/>
<path d="M9635 5510 c3 -5 10 -10 16 -10 5 0 9 5 9 10 0 6 -7 10 -16 10 -8 0
-12 -4 -9 -10z"/>
<path d="M9020 5400 c-12 -8 -11 -10 8 -10 12 0 22 5 22 10 0 13 -11 13 -30 0z"/>
<path d="M10830 5230 c0 -5 5 -10 10 -10 6 0 10 5 10 10 0 6 -4 10 -10 10 -5
0 -10 -4 -10 -10z"/>
<path d="M4250 5370 c0 -5 5 -10 10 -10 6 0 10 5 10 10 0 6 -4 10 -10 10 -5 0
-10 -4 -10 -10z"/>
<path d="M4330 5310 c0 -5 7 -10 15 -10 8 0 15 5 15 10 0 6 -7 10 -15 10 -8 0
-15 -4 -15 -10z"/>
<path d="M4655 5190 c3 -5 8 -10 11 -10 2 0 4 5 4 10 0 6 -5 10 -11 10 -5 0
-7 -4 -4 -10z"/>
<path d="M4703 5155 c-3 -9 -3 -18 -1 -21 3 -3 8 4 11 16 6 23 -1 27 -10 5z"/>
<path d="M5184 3911 c-11 -11 -2 -22 12 -17 14 5 15 4 4 -9 -10 -12 -10 -19
-1 -28 9 -9 14 -9 21 3 5 8 7 17 4 21 -2 4 1 11 7 14 7 5 10 -4 7 -26 l-3 -34
105 0 105 0 3 37 3 36 -73 6 c-74 6 -186 4 -194 -3z"/>
<path d="M5278 3774 c9 -8 42 -13 72 -13 30 0 49 3 41 6 -8 3 -9 8 -3 12 5 3
-21 6 -59 7 -58 1 -66 -1 -51 -12z"/>
<path d="M6353 3943 c9 -2 25 -2 35 0 9 3 1 5 -18 5 -19 0 -27 -2 -17 -5z"/>
<path d="M6172 3908 c-18 -18 -14 -72 7 -99 10 -13 18 -27 17 -31 0 -3 3 -10
8 -15 5 -5 6 -3 2 5 -8 13 14 16 52 5 18 -4 20 -8 10 -15 -8 -5 17 -8 67 -6
l80 3 18 39 c11 24 17 55 15 84 l-3 47 -22 -22 c-13 -13 -23 -18 -23 -13 0 6
-38 10 -95 10 -57 0 -95 4 -95 10 0 14 -23 13 -38 -2z m138 -110 c55 1 79 -2
83 -11 4 -10 -14 -11 -81 -5 -97 8 -112 12 -112 29 0 8 5 8 16 -2 10 -8 42
-12 94 -11z"/>
<path d="M4310 2283 c-79 -13 -237 -80 -224 -93 6 -6 38 1 86 19 146 57 241
60 299 12 l32 -27 -18 -69 c-21 -85 -16 -240 14 -380 10 -49 16 -93 12 -96
-16 -17 -309 -91 -344 -87 -28 3 -32 7 -39 43 -12 71 -21 311 -14 360 6 36 17
58 48 91 22 24 47 44 54 44 8 0 14 5 14 10 0 6 -4 10 -9 10 -11 0 -63 -40 -79
-62 -21 -28 -29 -21 -37 29 -5 36 -16 56 -45 85 -36 36 -41 38 -104 38 -40 0
-89 -8 -125 -20 l-59 -21 -59 21 c-212 77 -298 93 -379 71 -64 -17 -125 -78
-164 -163 -32 -69 -34 -81 -38 -201 -5 -133 9 -261 33 -307 32 -62 88 -86 263
-111 87 -12 200 -6 235 12 14 8 26 8 43 -1 31 -17 133 -7 278 26 85 19 125 23
171 18 51 -5 85 0 205 31 131 33 247 68 257 78 2 3 -10 7 -26 10 -35 7 -44 33
-67 182 -18 118 -18 207 2 297 l15 73 -37 32 c-53 46 -111 60 -194 46z m-820
-57 c30 -8 69 -20 85 -26 l30 -12 -55 -14 c-73 -19 -125 -46 -181 -91 -57 -47
-78 -83 -90 -152 -13 -83 12 -285 48 -377 5 -14 2 -16 -23 -10 -106 27 -124
62 -132 259 -5 143 7 256 34 308 56 111 152 149 284 115z m537 -68 c39 -32 46
-68 44 -243 0 -93 3 -206 8 -250 4 -44 6 -83 2 -87 -8 -9 -202 -48 -277 -55
-57 -5 -63 -4 -77 18 -9 13 -25 70 -37 127 -31 143 -26 284 12 358 24 45 96
123 116 124 4 1 30 7 57 15 54 16 129 12 152 -7z m-287 -14 c0 -3 -11 -20 -24
-37 -37 -50 -62 -106 -81 -182 -20 -80 -16 -155 16 -299 14 -64 17 -92 9 -100
-7 -7 -58 -11 -130 -11 -106 0 -122 2 -139 20 -30 30 -61 164 -68 290 -5 99
-4 115 17 162 43 102 163 158 343 162 31 0 57 -2 57 -5z"/>
<path d="M11786 452 c-11 -18 12 -35 38 -28 36 9 34 36 -3 36 -17 0 -32 -4
-35 -8z"/>
<path d="M1240 5685 c0 -2 19 -14 43 -26 74 -38 150 -95 214 -160 95 -97 138
-166 199 -320 41 -104 42 -105 50 -97 8 9 -42 150 -80 226 -71 142 -181 257
-328 343 -59 35 -98 48 -98 34z"/>
<path d="M773 4205 c-251 -83 -445 -208 -680 -439 -79 -77 -93 -95 -93 -123 0
-31 4 -28 133 100 207 208 356 311 601 417 80 34 146 66 146 71 0 5 -1 9 -2 8
-2 0 -49 -16 -105 -34z"/>
<path d="M10600 4049 c0 -5 5 -7 10 -4 6 3 10 8 10 11 0 2 -4 4 -10 4 -5 0
-10 -5 -10 -11z"/>
<path d="M11026 3778 c5 -7 25 -35 46 -62 21 -26 69 -109 106 -184 92 -188
152 -245 257 -245 61 0 124 26 209 87 74 53 166 134 166 147 0 14 -35 -7 -129
-79 -102 -78 -175 -112 -237 -112 -88 0 -138 47 -220 205 -68 131 -84 157
-138 213 -37 39 -77 59 -60 30z"/>
<path d="M920 3621 c-138 -44 -264 -140 -361 -274 -77 -106 -171 -194 -243
-228 -71 -32 -223 -61 -278 -53 l-38 7 0 -47 0 -46 53 -2 c28 -1 73 -1 100 1
26 1 47 0 47 -3 0 -3 -7 -31 -15 -63 -27 -104 -12 -145 21 -55 27 72 31 70 26
-15 -7 -125 19 -208 114 -363 94 -153 226 -253 389 -295 91 -23 250 -37 340
-30 292 23 570 172 660 352 24 48 30 74 33 146 5 108 -6 155 -63 273 -44 91
-126 207 -132 188 -2 -6 17 -49 41 -95 75 -141 98 -212 103 -322 6 -94 5 -99
-26 -161 -54 -110 -182 -211 -336 -265 l-30 -11 30 28 c56 49 118 142 96 142
-4 0 -18 -12 -32 -26 -52 -57 -209 -164 -238 -164 -7 0 21 23 63 50 91 61 138
115 168 189 18 46 22 77 23 176 0 155 -19 232 -101 393 -38 76 -55 117 -42
106 39 -36 111 -140 139 -201 50 -108 67 -89 25 28 -33 95 -86 168 -172 239
-41 34 -73 64 -70 67 4 4 100 -59 177 -116 35 -25 20 6 -32 68 -28 34 -63 68
-78 76 -16 8 -20 14 -10 15 18 0 71 -37 100 -71 44 -52 112 -119 121 -119 35
0 -121 185 -190 225 -29 16 -48 31 -42 33 24 8 141 -70 186 -126 97 -118 108
-103 34 45 -53 107 -138 206 -220 258 -102 64 -230 82 -340 46z"/>
<path d="M10160 3419 c-49 -22 -114 -68 -106 -76 2 -3 24 6 48 20 53 31 139
57 189 57 21 0 73 -11 116 -25 42 -13 79 -23 80 -21 7 7 -24 24 -80 45 -77 28
-185 28 -247 0z"/>
<path d="M10180 3335 c-92 -26 -180 -83 -208 -135 -22 -41 -23 -54 -20 -148 4
-78 9 -107 21 -119 22 -22 24 -12 30 103 3 56 11 104 21 126 20 43 79 86 133
99 53 12 196 12 188 -1 -3 -5 -14 -10 -23 -10 -23 0 -107 -45 -155 -83 -43
-33 -77 -96 -97 -177 -7 -30 -28 -84 -46 -120 -29 -58 -84 -223 -84 -254 0 -6
-18 -47 -41 -92 -52 -105 -69 -170 -69 -271 0 -136 52 -241 152 -308 128 -84
252 -99 423 -51 55 16 112 35 128 43 15 7 27 9 27 4 0 -14 -47 -93 -131 -219
-38 -58 -66 -108 -63 -111 3 -3 17 8 30 24 52 63 273 413 304 480 85 185 94
198 149 216 46 15 139 66 170 93 13 12 38 53 56 92 33 73 47 84 106 84 37 0
113 -52 131 -91 15 -30 15 -36 1 -69 -51 -119 -38 -256 43 -439 37 -83 40 -54
5 56 -58 186 -65 266 -31 353 30 77 27 96 -28 150 -56 57 -111 76 -171 60 -47
-12 -52 -18 -95 -107 -19 -39 -46 -77 -61 -87 -34 -22 -43 -14 -21 19 9 14 22
61 28 104 10 65 9 87 -4 137 -30 108 -57 218 -68 275 -14 72 -56 139 -112 177
-63 44 -289 157 -361 181 -84 29 -187 35 -257 16z m149 -144 c-24 -15 -57 -42
-73 -59 -16 -17 -32 -30 -35 -27 -4 2 -7 -4 -7 -13 -1 -9 -5 -25 -9 -36 -8
-17 -7 -17 26 -1 l34 18 -19 -22 c-28 -31 -11 -37 26 -9 62 46 63 42 3 -23
-54 -58 -92 -129 -77 -143 2 -3 17 14 32 37 27 44 106 115 150 136 24 12 24
11 5 -4 -69 -55 -155 -154 -155 -179 0 -5 21 10 48 36 61 60 143 120 151 113
3 -4 -3 -11 -14 -17 -67 -38 -164 -169 -151 -204 5 -12 16 -2 45 36 58 77 96
99 43 25 -40 -56 -53 -95 -32 -95 6 0 10 3 10 8 0 11 62 84 67 79 2 -3 -12
-30 -32 -62 -21 -33 -34 -63 -31 -72 5 -12 15 -4 37 31 18 26 33 45 35 43 3
-2 -7 -29 -21 -61 -14 -31 -25 -63 -25 -71 0 -25 19 -17 35 14 32 64 33 38 1
-33 -89 -194 -118 -349 -97 -503 7 -48 17 -93 23 -101 17 -20 4 -23 -35 -7
-20 8 -41 15 -47 15 -15 0 -12 -26 5 -40 32 -26 4 -21 -44 8 -56 35 -69 32
-41 -8 43 -60 7 -54 -63 10 -51 47 -77 61 -77 42 0 -12 32 -55 55 -74 32 -27
3 -21 -46 10 -62 40 -103 91 -129 159 -18 48 -21 73 -18 148 4 76 11 105 45
190 22 55 48 132 57 170 9 39 39 115 66 170 27 55 58 133 70 173 26 89 51 118
155 177 89 50 123 61 54 16z"/>
<path d="M12272 3209 c-132 -17 -273 -75 -398 -164 -110 -79 -181 -185 -202
-305 -10 -55 -8 -79 4 -44 63 186 258 360 424 378 l55 6 -55 -15 c-75 -21
-167 -69 -215 -111 -39 -35 -34 -39 20 -19 19 7 19 7 1 -7 -16 -12 -16 -15 -2
-15 8 0 18 8 21 18 5 15 138 89 161 89 5 0 -11 -13 -36 -30 -61 -40 -131 -111
-159 -160 -29 -53 -15 -51 39 6 49 50 122 104 140 104 7 0 -13 -20 -43 -45
-50 -41 -117 -114 -117 -129 0 -16 26 -3 54 27 34 37 98 87 111 87 5 0 -16
-22 -46 -49 -53 -47 -118 -146 -105 -159 4 -3 32 22 63 56 50 57 137 132 152
132 3 0 -25 -33 -63 -72 -68 -73 -130 -175 -124 -206 2 -11 21 9 51 55 27 40
61 82 78 93 32 24 40 13 10 -14 -23 -21 -75 -128 -86 -174 -11 -54 11 -37 50
37 20 38 46 78 57 88 l21 18 -20 -40 c-52 -103 -77 -242 -76 -410 0 -66 6
-151 12 -189 7 -38 10 -70 8 -72 -4 -5 -71 126 -82 161 -6 18 -7 19 -16 3 -12
-21 11 -134 40 -200 12 -26 37 -68 56 -93 19 -25 31 -45 25 -45 -24 0 -123
111 -159 180 -22 41 -44 76 -50 78 -19 6 39 -140 81 -203 22 -33 55 -71 74
-84 19 -13 33 -26 30 -28 -12 -12 -119 58 -177 116 -114 114 -153 231 -138
406 12 128 -20 101 -43 -36 -20 -123 22 -271 103 -364 17 -19 29 -35 26 -35
-23 0 -162 75 -196 105 -136 123 -160 353 -56 534 14 23 25 50 25 59 0 29 -46
-26 -85 -102 -108 -213 -46 -459 144 -569 51 -30 111 -58 334 -153 169 -73
358 -100 476 -70 92 24 193 81 267 150 l64 60 0 602 0 602 -46 30 c-45 31
-200 92 -232 92 -9 0 -24 5 -32 11 -19 14 157 4 213 -12 41 -11 58 -6 40 12
-35 35 -301 50 -471 28z"/>
<path d="M11140 2734 c-59 -21 -77 -38 -30 -30 19 3 65 9 101 12 62 6 72 4
158 -34 50 -22 93 -36 96 -32 3 5 -33 28 -80 51 -100 50 -171 59 -245 33z"/>
<path d="M0 2602 c0 -13 12 -23 43 -32 71 -21 94 -45 153 -161 65 -127 126
-199 224 -264 59 -39 182 -95 210 -95 23 0 7 16 -34 33 -69 28 -194 115 -261
181 -41 41 -78 91 -110 151 -69 128 -90 154 -152 181 -65 29 -73 29 -73 6z"/>
<path d="M47 2458 c23 -25 67 -86 99 -135 52 -81 196 -243 216 -243 19 0 3 25
-73 111 -45 51 -101 122 -124 158 -44 69 -79 106 -130 137 -27 17 -26 14 12
-28z"/>
<path d="M0 1665 c0 -363 4 -605 9 -605 15 0 92 62 112 90 11 14 26 56 36 94
19 79 12 138 -28 243 -41 108 8 89 61 -24 36 -75 88 -128 168 -171 97 -52 191
-52 256 -1 63 50 77 150 37 269 -32 93 -71 148 -218 300 -71 74 -167 176 -213
227 -88 98 -135 140 -187 167 l-33 17 0 -606z"/>
<path d="M10833 2248 c-11 -13 -52 -84 -90 -159 -39 -75 -107 -193 -152 -263
-96 -147 -117 -192 -126 -262 -6 -41 -3 -61 14 -99 25 -58 25 -55 2 -55 -30 0
-78 46 -85 80 -3 19 -10 29 -17 25 -13 -9 -4 -67 17 -107 15 -29 61 -58 92
-58 36 0 108 57 156 123 26 37 56 71 66 77 31 16 100 114 126 177 27 68 28 62
9 -72 -22 -150 -20 -249 6 -295 12 -21 32 -44 45 -51 13 -7 24 -17 24 -22 0
-17 -72 1 -96 23 -28 27 -80 124 -89 168 -10 48 -25 39 -25 -16 0 -103 87
-220 176 -237 53 -9 134 33 184 96 87 110 96 238 37 539 -49 251 -92 376 -136
400 -11 5 -42 10 -69 10 -38 0 -53 -5 -69 -22z"/>
<path d="M445 2214 c122 -71 200 -104 242 -103 l38 0 -35 17 c-41 18 -107 51
-202 99 -36 18 -79 33 -95 33 -23 0 -15 -8 52 -46z"/>
<path d="M11143 1993 c3 -43 25 -124 57 -218 30 -89 53 -177 57 -215 9 -104
24 -108 20 -5 -3 76 -11 113 -55 241 -28 84 -55 177 -58 208 -10 82 -28 72
-21 -11z"/>
<path d="M10597 1308 c-45 -78 -75 -143 -87 -188 -6 -25 -13 -53 -16 -62 -3
-10 0 -18 6 -18 6 0 25 30 42 68 16 37 45 100 64 140 19 41 34 80 34 88 0 26
-18 14 -43 -28z"/>
<path d="M10192 1282 c-7 -23 -28 -74 -47 -114 -19 -39 -33 -74 -30 -76 21
-21 98 140 93 195 l-3 38 -13 -43z"/>
<path d="M845 1060 c10 -35 25 -49 25 -23 0 11 -7 27 -16 34 -15 12 -16 11 -9
-11z"/>
<path d="M11246 1069 c-3 -8 -10 -46 -15 -85 -15 -97 -45 -192 -76 -234 -26
-35 -28 -40 -20 -40 3 0 21 24 39 53 40 62 62 132 75 237 9 70 8 101 -3 69z"/>
<path d="M10950 1043 c0 -10 -3 -29 -6 -43 -5 -24 -5 -24 10 -6 18 22 22 66 6
66 -5 0 -10 -8 -10 -17z"/>
</g>
</svg>
